<?xml version="1.0" encoding="UTF-8" standalone="no"?>
<!-- generated at drububu.com  -->

<svg
   xmlns:dc="http://purl.org/dc/elements/1.1/"
   xmlns:cc="http://creativecommons.org/ns#"
   xmlns:rdf="http://www.w3.org/1999/02/22-rdf-syntax-ns#"
   xmlns:svg="http://www.w3.org/2000/svg"
   xmlns="http://www.w3.org/2000/svg"
   xmlns:sodipodi="http://sodipodi.sourceforge.net/DTD/sodipodi-0.dtd"
   xmlns:inkscape="http://www.inkscape.org/namespaces/inkscape"
   version="1.1"
   preserveAspectRatio="xMinYMin meet"
   x="0px"
   y="0px"
   width="103.1875mm"
   height="21.166676mm"
   viewBox="0 0 365.625 75.000031"
   id="svg4492"
   inkscape:version="0.92.5 (2060ec1f9f, 2020-04-08)"
   sodipodi:docname="logo-d3_com-fundo.svg">
  <metadata
     id="metadata4808">
    <rdf:RDF>
      <cc:Work
         rdf:about="">
        <dc:format>image/svg+xml</dc:format>
        <dc:type
           rdf:resource="http://purl.org/dc/dcmitype/StillImage" />
        <dc:title></dc:title>
      </cc:Work>
    </rdf:RDF>
  </metadata>
  <defs
     id="defs4806" />
  <sodipodi:namedview
     pagecolor="#ffffff"
     bordercolor="#666666"
     borderopacity="1"
     objecttolerance="10"
     gridtolerance="10"
     guidetolerance="10"
     inkscape:pageopacity="0"
     inkscape:pageshadow="2"
     inkscape:window-width="1920"
     inkscape:window-height="1040"
     id="namedview4804"
     showgrid="true"
     units="mm"
     inkscape:zoom="2.5093713"
     inkscape:cx="228.37239"
     inkscape:cy="-61.502879"
     inkscape:window-x="0"
     inkscape:window-y="20"
     inkscape:window-maximized="1"
     inkscape:current-layer="svg4492"
     inkscape:object-nodes="true"
     inkscape:snap-page="false"
     inkscape:snap-bbox="true"
     inkscape:bbox-nodes="true"
     showguides="true"
     inkscape:guide-bbox="true"
     fit-margin-top="0"
     fit-margin-left="0"
     fit-margin-right="0"
     fit-margin-bottom="0">
    <inkscape:grid
       type="xygrid"
       id="grid4234"
       originx="-65.624999"
       originy="-614.06249" />
  </sodipodi:namedview>
  <g
     id="g5935"
     transform="translate(0,2.8803018e-5)">
    <g
       id="g5891">
      <path
         style="fill:#60f163;fill-opacity:1;stroke-width:1.0666666"
         d="m 0,0 v 80 h 75 v -5 h 5 V 0 Z"
         transform="scale(0.93749998)"
         id="path4920"
         inkscape:connector-curvature="0" />
      <path
         inkscape:connector-curvature="0"
         style="fill:#ffffff;fill-opacity:1;stroke-width:1.02630019"
         id="path4940"
         d="M 84.495197,74.129019 V 122.23684 H 108.5491 v -4.81078 h 4.81079 v -4.81078 h 4.81078 V 83.750582 h -4.81078 V 78.9398 H 108.5491 V 74.129019 Z M 94.11676,78.9398 h 9.62156 v 4.810782 h 4.81078 v 28.864698 h -4.81078 v 4.81078 h -9.62156 z"
         transform="matrix(0.97437374,0,0,0.97437374,-68.267411,-58.166872)" />
      <g
         transform="matrix(1.1718749,0,0,1.1718749,-84.374992,-42.187497)"
         style="fill:#ffffff;fill-opacity:1;stroke-width:1.02630019"
         id="g4964">
        <path
           inkscape:connector-curvature="0"
           style="fill:#ffffff;fill-opacity:1;stroke-width:1.02630019"
           d="m 116,44 h 8 v 4 h -8 z"
           id="path4966" />
        <path
           inkscape:connector-curvature="0"
           style="fill:#ffffff;fill-opacity:1;stroke-width:1.02630019"
           d="m 124,48 h 4 v 4 h -4 z"
           id="path4968" />
        <path
           inkscape:connector-curvature="0"
           style="fill:#ffffff;fill-opacity:1;stroke-width:1.02630019"
           d="m 116,52 h 8 v 4 h -8 z"
           id="path4970" />
        <path
           inkscape:connector-curvature="0"
           style="fill:#ffffff;fill-opacity:1;stroke-width:1.02630019"
           d="m 124,56 h 4 v 4 h -4 z"
           id="path4972" />
        <path
           inkscape:connector-curvature="0"
           style="fill:#ffffff;fill-opacity:1;stroke-width:1.02630019"
           d="m 116,60 h 8 v 4 h -8 z"
           id="path4974" />
      </g>
    </g>
    <g
       id="g5921">
      <path
         inkscape:connector-curvature="0"
         id="path5893"
         transform="matrix(0.98684208,0,0,0.93749998,84.374999,-2.8757791e-5)"
         d="M 0,0 V 80 H 285 V -4.8241915e-8 Z"
         style="fill:#60f163;fill-opacity:1;stroke-width:1.03965795"
         sodipodi:nodetypes="ccccc" />
      <path
         inkscape:connector-curvature="0"
         id="path5720"
         style="fill:#ffffff;fill-opacity:1;stroke-width:1.02630019"
         d="m 416.43915,122.23684 h 9.62157 v 4.81078 h -9.62157 z m -72.16173,0 h 4.81078 v 4.81078 h -4.81078 z m -67.35094,0 h 9.62156 v 4.81078 h -9.62156 z m -14.43235,0 h 4.81078 v 4.81078 h -4.81078 z m -62.54017,0 h 4.81078 v 4.81078 h -4.81078 z m 226.10676,-4.81078 h 4.81078 v 4.81078 h -4.81078 z m -139.51268,0 h 4.81078 v 4.81078 h -4.81078 z m 134.7019,-4.81078 h 4.81078 v 4.81078 h -4.81078 z m -72.16174,0 h 4.81079 v 9.62156 h -4.81079 z m -67.35094,0 h 4.81078 v 4.81078 h -4.81078 z m 134.70189,-4.81079 h 4.81079 v 4.81079 h -4.81079 z m -28.86469,0 h 4.81078 v 9.62157 h 4.81078 v -9.62157 h 4.81079 v 19.24313 h -4.81079 v -4.81078 h -4.81078 v 4.81078 h -4.81078 z m -48.10782,0 h 4.81078 v 14.43235 h -4.81078 z m -19.24312,0 h 4.81078 v 14.43235 h -4.81078 z m -43.29704,0 h 4.81078 v 4.81079 h -4.81078 z m -9.62157,0 h 4.81079 v 14.43235 h -4.81079 z m -9.62156,0 h 4.81078 v 14.43235 h -4.81078 z m -57.72939,0 h 4.81078 v 9.62157 h -4.81078 z m -28.86469,0 h 4.81079 v 14.43235 h -4.81079 z m 250.16067,-4.81078 h 9.62156 v 4.81078 h -9.62156 z m -14.43235,0 h 4.81078 v 24.05391 h -4.81078 z m -14.43235,0 h 4.81078 v 4.81078 h -4.81078 z m -24.05391,0 h 14.43235 v 4.81078 h -4.81078 v 19.24313 h -4.81078 v -19.24313 h -4.81079 z m -9.62156,0 h 4.81078 v 24.05391 h -4.81078 z m -14.43235,0 h 9.62157 v 4.81078 h -9.62157 z m -14.43234,0 h 4.81078 v 24.05391 h -4.81078 z m -19.24313,0 h 9.62157 v 4.81078 h -4.81079 v 14.43235 h 4.81079 v 4.81078 h -9.62157 z m -28.86469,0 h 9.62156 v 4.81078 h -9.62156 z m -19.24313,0 h 4.81078 v 4.81078 h -4.81078 z m -24.05391,0 h 14.43234 v 4.81078 h -4.81078 v 19.24313 H 243.251 v -19.24313 h -4.81078 z m -9.62156,0 h 4.81078 v 24.05391 h -4.81078 z m -19.24313,0 h 14.43235 v 4.81078 h -9.62157 v 4.81079 h 4.81078 v 4.81078 h -4.81078 v 4.81078 h 9.62157 v 4.81078 h -14.43235 z m -19.24313,0 h 9.62156 v 4.81078 h -4.81078 v 9.62157 h 4.81078 v 4.81078 h -4.81078 v 4.81078 h -4.81078 z m -9.62156,0 h 4.81078 v 24.05391 h -4.81078 z m -19.24313,0 h 9.62156 v 4.81078 h -4.81078 v 14.43235 h 4.81078 v 4.81078 h -9.62156 z M 329.84508,88.56137 h 9.62156 v 4.810781 h -9.62156 z m -14.43235,0 h 4.81079 v 4.810781 h -4.81079 z m -76.97251,0 h 9.62156 v 4.810781 h -9.62156 z m 101.02642,-4.810788 h 4.81078 v 4.810788 h -4.81078 z m -91.40486,0 h 4.81078 v 4.810788 h -4.81078 z M 334.65586,78.9398 h 4.81078 v 4.810782 h -4.81078 z m -91.40486,0 h 4.81078 v 4.810782 H 243.251 Z m 86.59408,-4.810781 h 4.81078 V 78.9398 h -4.81078 z m -9.62156,0 h 4.81078 V 88.56137 h -4.81078 z m -9.62157,0 h 4.81078 V 88.56137 h -4.81078 z m -9.62157,0 h 4.81079 V 88.56137 h -4.81079 z m -43.29703,0 h 4.81078 v 9.621563 h 4.81078 v -9.621563 h 4.81079 v 19.243132 h -4.81079 V 88.56137 h -4.81078 v 4.810781 h -4.81078 z m -19.24313,0 H 243.251 V 78.9398 h -4.81078 z m -67.35095,0 h 4.81079 V 88.56137 h -4.81079 z m 163.56659,-4.810781 h 9.62156 v 4.810781 h -9.62156 z m -19.24313,0 h 4.81079 v 4.810781 h -4.81079 z m -24.05391,0 h 9.62156 v 4.810781 H 296.1696 V 88.56137 h 4.81078 v 4.810781 h -9.62156 z m -28.86469,0 h 4.81078 v 4.810781 h -4.81078 z m -19.24313,0 h 9.62156 v 4.810781 H 243.251 Z m -24.05391,0 h 14.43235 v 4.810781 h -9.62156 V 78.9398 h 4.81078 v 4.810782 h -4.81078 v 4.810788 h 9.62156 v 4.810781 h -14.43235 z m -19.24313,0 h 14.43235 v 4.810781 h -9.62157 V 78.9398 h 4.81079 v 4.810782 h -4.81079 v 9.621569 h -4.81078 z m -19.24312,0 h 14.43234 v 4.810781 h -9.62156 V 78.9398 h 4.81078 v 4.810782 h -4.81078 v 4.810788 h 9.62156 v 4.810781 h -14.43234 z m -19.24313,0 h 9.62156 v 4.810781 h -4.81078 V 88.56137 h 4.81078 v 4.810781 h -9.62156 z m 254.97144,52.918602 h 9.62157 v 4.81078 h -9.62157 z m -72.16173,0 h 4.81078 v 4.81078 h -4.81078 z m -67.35094,0 h 9.62156 v 4.81078 h -9.62156 z m -14.43235,0 h 4.81078 v 4.81078 h -4.81078 z m -62.54017,0 h 4.81078 v 4.81078 h -4.81078 z m 226.10676,-4.81078 h 4.81078 v 4.81078 h -4.81078 z m -139.51268,0 h 4.81078 v 4.81078 h -4.81078 z m 134.7019,-4.81078 h 4.81078 v 4.81078 h -4.81078 z m -72.16174,0 h 4.81079 v 9.62156 h -4.81079 z m -67.35094,0 h 4.81078 v 4.81078 h -4.81078 z m 134.70189,-4.81079 h 4.81079 v 4.81079 h -4.81079 z m -28.86469,0 h 4.81078 v 9.62157 h 4.81078 v -9.62157 h 4.81079 v 19.24313 h -4.81079 v -4.81078 h -4.81078 v 4.81078 h -4.81078 z m -48.10782,0 h 4.81078 v 14.43235 h -4.81078 z m -19.24312,0 h 4.81078 v 14.43235 h -4.81078 z m -43.29704,0 h 4.81078 v 4.81079 h -4.81078 z m -9.62157,0 h 4.81079 v 14.43235 h -4.81079 z m -9.62156,0 h 4.81078 v 14.43235 h -4.81078 z m -57.72939,0 h 4.81078 v 9.62157 h -4.81078 z m -28.86469,0 h 4.81079 v 14.43235 h -4.81079 z m 250.16067,-4.81078 h 9.62156 v 4.81078 h -9.62156 z m -14.43235,0 h 4.81078 v 24.05391 h -4.81078 z m -14.43235,0 h 4.81078 v 4.81078 h -4.81078 z m -24.05391,0 h 14.43235 v 4.81078 h -4.81078 v 19.24313 h -4.81078 v -19.24313 h -4.81079 z m -9.62156,0 h 4.81078 v 24.05391 h -4.81078 z m -14.43235,0 h 9.62157 v 4.81078 h -9.62157 z m -14.43234,0 h 4.81078 v 24.05391 h -4.81078 z m -19.24313,0 h 9.62157 v 4.81078 h -4.81079 v 14.43235 h 4.81079 v 4.81078 h -9.62157 z m -28.86469,0 h 9.62156 v 4.81078 h -9.62156 z m -19.24313,0 h 4.81078 v 4.81078 h -4.81078 z m -24.05391,0 h 14.43234 v 4.81078 h -4.81078 v 19.24313 H 243.251 v -19.24313 h -4.81078 z m -9.62156,0 h 4.81078 v 24.05391 h -4.81078 z m -19.24313,0 h 14.43235 v 4.81078 h -9.62157 v 4.81079 h 4.81078 v 4.81078 h -4.81078 v 4.81078 h 9.62157 v 4.81078 h -14.43235 z m -19.24313,0 h 9.62156 v 4.81078 h -4.81078 v 9.62157 h 4.81078 v 4.81078 h -4.81078 v 4.81078 h -4.81078 z m -9.62156,0 h 4.81078 v 24.05391 h -4.81078 z m -19.24313,0 h 9.62156 v 4.81078 h -4.81078 v 14.43235 h 4.81078 v 4.81078 h -9.62156 z M 329.84508,88.56137 h 9.62156 v 4.810781 h -9.62156 z m -14.43235,0 h 4.81079 v 4.810781 h -4.81079 z m -76.97251,0 h 9.62156 v 4.810781 h -9.62156 z m 101.02642,-4.810788 h 4.81078 v 4.810788 h -4.81078 z m -91.40486,0 h 4.81078 v 4.810788 h -4.81078 z M 334.65586,78.9398 h 4.81078 v 4.810782 h -4.81078 z m -91.40486,0 h 4.81078 v 4.810782 H 243.251 Z m 86.59408,-4.810781 h 4.81078 V 78.9398 h -4.81078 z m -9.62156,0 h 4.81078 V 88.56137 h -4.81078 z m -9.62157,0 h 4.81078 V 88.56137 h -4.81078 z m -9.62157,0 h 4.81079 V 88.56137 h -4.81079 z m -43.29703,0 h 4.81078 v 9.621563 h 4.81078 v -9.621563 h 4.81079 v 19.243132 h -4.81079 V 88.56137 h -4.81078 v 4.810781 h -4.81078 z m -19.24313,0 H 243.251 V 78.9398 h -4.81078 z m -67.35095,0 h 4.81079 V 88.56137 h -4.81079 z m 163.56659,-4.810781 h 9.62156 v 4.810781 h -9.62156 z m -19.24313,0 h 4.81079 v 4.810781 h -4.81079 z m -24.05391,0 h 9.62156 v 4.810781 H 296.1696 V 88.56137 h 4.81078 v 4.810781 h -9.62156 z m -28.86469,0 h 4.81078 v 4.810781 h -4.81078 z m -19.24313,0 h 9.62156 v 4.810781 H 243.251 Z m -24.05391,0 h 14.43235 v 4.810781 h -9.62156 V 78.9398 h 4.81078 v 4.810782 h -4.81078 v 4.810788 h 9.62156 v 4.810781 h -14.43235 z m -19.24313,0 h 14.43235 v 4.810781 h -9.62157 V 78.9398 h 4.81079 v 4.810782 h -4.81079 v 9.621569 h -4.81078 z m -19.24312,0 h 14.43234 v 4.810781 h -9.62156 V 78.9398 h 4.81078 v 4.810782 h -4.81078 v 4.810788 h 9.62156 v 4.810781 h -14.43234 z m -19.24313,0 h 9.62156 v 4.810781 h -4.81078 V 88.56137 h 4.81078 v 4.810781 h -9.62156 z"
         transform="matrix(0.97437374,0,0,0.97437374,-63.579898,-58.1669)" />
    </g>
  </g>
</svg>
