<?xml version="1.0" encoding="UTF-8" standalone="no"?>
<svg
   width="150px"
   height="53px"
   viewBox="0 0 150 53"
   version="1.1"
   id="svg282"
   sodipodi:docname="drupalpt.svg"
   inkscape:version="1.2.2 (b0a8486541, 2022-12-01)"
   xmlns:inkscape="http://www.inkscape.org/namespaces/inkscape"
   xmlns:sodipodi="http://sodipodi.sourceforge.net/DTD/sodipodi-0.dtd"
   xmlns="http://www.w3.org/2000/svg"
   xmlns:svg="http://www.w3.org/2000/svg">
  <defs
     id="defs286" />
  <sodipodi:namedview
     id="namedview284"
     pagecolor="#ffffff"
     bordercolor="#666666"
     borderopacity="1.0"
     inkscape:showpageshadow="2"
     inkscape:pageopacity="0.0"
     inkscape:pagecheckerboard="0"
     inkscape:deskcolor="#d1d1d1"
     showgrid="false"
     inkscape:zoom="5.5060048"
     inkscape:cx="73.102007"
     inkscape:cy="10.533954"
     inkscape:window-width="1920"
     inkscape:window-height="1055"
     inkscape:window-x="0"
     inkscape:window-y="0"
     inkscape:window-maximized="1"
     inkscape:current-layer="Inicio" />
  <!-- Generator: Sketch 52.5 (67469) - http://www.bohemiancoding.com/sketch -->
  <title
     id="title246">drupalpt-logo</title>
  <desc
     id="desc248">Created with Sketch.</desc>
  <g
     id="High-fi"
     stroke="none"
     stroke-width="1"
     fill="none"
     fill-rule="evenodd">
    <g
       id="Inicio"
       transform="translate(-148.000000, -50.000000)"
       fill="#FFFFFF">
      <g
         id="drupalpt-logo"
         transform="translate(148.000000, 50.000000)"
         style="fill:#143f60;fill-opacity:1">
        <g
           id="Group"
           transform="translate(59.322034, 11.967742)"
           style="fill:#143f60;fill-opacity:1">
          <path
             d="M9.76217743,7.23325062 C9.76217743,8.18390642 9.59879371,9.05189649 9.31287219,9.75455512 C9.02695068,10.4572138 8.57764544,11.0772067 8.04664834,11.5318681 C7.51565124,11.9865296 6.82127042,12.3585253 6.04519774,12.6065225 C5.26912506,12.8545197 4.37051458,12.9785183 3.39021225,12.9785183 C2.94090701,12.9785183 2.40990991,12.9785183 1.83806688,12.9371854 C1.22537792,12.8958525 0.653534891,12.8131868 0.0816918614,12.6891882 L0.0816918614,1.77731301 C0.653534891,1.65331443 1.26622385,1.61198157 1.87891281,1.57064871 C2.49160177,1.52931585 3.02259887,1.52931585 3.47190411,1.52931585 C4.41136051,1.52931585 5.26912506,1.65331443 6.04519774,1.85997873 C6.82127042,2.06664303 7.47480531,2.39730592 8.04664834,2.89330025 C8.61849137,3.34796172 9.02695068,3.96795463 9.31287219,4.67061326 C9.63963964,5.33193903 9.76217743,6.1999291 9.76217743,7.23325062 Z M2.57329363,10.7878766 C2.69583142,10.7878766 2.81836922,10.7878766 2.98175294,10.8292095 C3.14513666,10.8292095 3.30852038,10.8292095 3.51275004,10.8292095 C4.77897389,10.8292095 5.67758436,10.4985466 6.29027332,9.8785537 C6.90296228,9.25856079 7.1888838,8.34923786 7.1888838,7.23325062 C7.1888838,6.07593052 6.90296228,5.16660759 6.33111925,4.54661468 C5.75927623,3.92662177 4.86066575,3.63729174 3.5944419,3.63729174 C3.43105818,3.63729174 3.26767445,3.63729174 3.0634448,3.63729174 C2.90006108,3.63729174 2.69583142,3.63729174 2.5324477,3.6786246 L2.57329363,10.7878766 Z"
             id="Shape"
             fill-rule="nonzero"
             style="fill:#143f60;fill-opacity:1" />
          <path
             d="M16.7468316,6.48925913 C16.5426019,6.44792627 16.2975263,6.36526055 16.0116048,6.32392769 C15.7256833,6.28259482 15.3989159,6.24126196 15.0721484,6.24126196 C14.9087647,6.24126196 14.745381,6.24126196 14.5411513,6.28259482 C14.3369217,6.32392769 14.1735379,6.32392769 14.0510002,6.36526055 L14.0510002,12.8545197 L11.6819362,12.8545197 L11.6819362,4.79461184 C12.0903955,4.6292804 12.6213926,4.50528181 13.1932356,4.38128323 C13.7650786,4.25728465 14.4186135,4.17461893 15.1538403,4.17461893 C15.2763781,4.17461893 15.4397618,4.17461893 15.6031455,4.21595179 C15.7665292,4.21595179 15.9707589,4.25728465 16.1341426,4.29861751 C16.2975263,4.33995037 16.501756,4.33995037 16.6651397,4.38128323 C16.8285234,4.42261609 16.9919072,4.46394895 17.114445,4.50528181 L16.7468316,6.48925913 Z"
             id="Path"
             style="fill:#143f60;fill-opacity:1" />
          <path
             d="M25.6103985,12.5651896 C25.2019392,12.6891882 24.6709421,12.8131868 24.0582532,12.8958525 C23.4455642,12.9785183 22.7511834,13.061184 22.0568026,13.061184 C21.3624217,13.061184 20.7497328,12.9785183 20.2595816,12.771854 C19.7694304,12.5651896 19.4018171,12.3171925 19.1158956,11.9451967 C18.829974,11.6145339 18.6257444,11.1598724 18.5440525,10.7052109 C18.4215147,10.2092166 18.3806688,9.6718894 18.3806688,9.09322935 L18.3806688,4.33995037 L20.7497328,4.33995037 L20.7497328,8.80389933 C20.7497328,9.58922368 20.8314246,10.1265509 21.0356543,10.4985466 C21.239884,10.8705424 21.6074973,11.0358738 22.1793404,11.0358738 C22.3427241,11.0358738 22.5469537,11.0358738 22.7103375,10.9945409 C22.8737212,10.9532081 23.0779508,10.9532081 23.2413346,10.9532081 L23.2413346,4.33995037 L25.6103985,4.33995037 L25.6103985,12.5651896 Z"
             id="path252"
             style="fill:#143f60;fill-opacity:1" />
          <path
             d="M35.6584975,8.59723502 C35.6584975,9.25856079 35.5768056,9.83722084 35.4134219,10.374548 C35.2500382,10.9118752 35.0049626,11.3665367 34.7190411,11.7798653 C34.4331196,12.1931939 34.0246603,12.4825239 33.575355,12.6891882 C33.1260498,12.8958525 32.5950527,13.0198511 31.9823637,13.0198511 C31.6555963,13.0198511 31.3288288,12.9785183 31.0429073,12.9371854 C30.7569858,12.8545197 30.4710643,12.771854 30.2259887,12.6478554 L30.2259887,15.8304856 L27.8569247,15.8304856 L27.8569247,4.6292804 C28.0611544,4.54661468 28.30623,4.50528181 28.5921515,4.42261609 C28.878073,4.38128323 29.1639945,4.29861751 29.449916,4.25728465 C29.7358375,4.21595179 30.062605,4.17461893 30.3893724,4.13328607 C30.7161399,4.09195321 31.0020614,4.09195321 31.2879829,4.09195321 C31.9823637,4.09195321 32.5950527,4.21595179 33.1260498,4.42261609 C33.6570469,4.6292804 34.1063521,4.91861042 34.5148114,5.33193903 C34.8824248,5.70393477 35.1683463,6.1999291 35.372576,6.73725629 C35.5768056,7.27458348 35.6584975,7.89457639 35.6584975,8.59723502 Z M33.2077416,8.63856788 C33.2077416,7.89457639 33.0443579,7.31591634 32.7175905,6.86125487 C32.390823,6.40659341 31.9006719,6.1999291 31.247137,6.1999291 C31.0429073,6.1999291 30.8386777,6.1999291 30.6752939,6.24126196 C30.5119102,6.24126196 30.3485265,6.28259482 30.2259887,6.28259482 L30.2259887,10.6225452 C30.3893724,10.7052109 30.5527561,10.7878766 30.7978317,10.8705424 C31.0429073,10.9532081 31.2879829,10.9532081 31.5330585,10.9532081 C32.6767445,10.9532081 33.2077416,10.2092166 33.2077416,8.63856788 Z"
             id="path254"
             fill-rule="nonzero"
             style="fill:#143f60;fill-opacity:1" />
          <path
             d="M40.5191632,4.09195321 C41.2135441,4.09195321 41.826233,4.17461893 42.2755383,4.33995037 C42.7248435,4.50528181 43.1333028,4.75327898 43.4192243,5.042609 C43.7051458,5.33193903 43.9093755,5.70393477 44.0319133,6.15859624 C44.1544511,6.57192485 44.195297,7.06791918 44.195297,7.60524637 L44.195297,12.6065225 C43.8685295,12.6891882 43.3783784,12.771854 42.7656894,12.8545197 C42.1530005,12.9371854 41.4177737,13.0198511 40.5600092,13.0198511 C40.0290121,13.0198511 39.5388609,12.9785183 39.0895557,12.8545197 C38.6402504,12.771854 38.272637,12.6065225 37.9458696,12.3585253 C37.6191022,12.151861 37.3740266,11.862531 37.2106428,11.4905353 C37.0472591,11.1185395 36.9655673,10.7052109 36.9655673,10.1678837 C36.9655673,9.6718894 37.0472591,9.25856079 37.2514888,8.88656505 C37.4557184,8.55590216 37.700794,8.26657214 38.0275615,8.05990783 C38.3543289,7.85324353 38.7219423,7.68791209 39.1712475,7.60524637 C39.5797068,7.52258065 40.0290121,7.48124778 40.4783173,7.48124778 C40.8050847,7.48124778 41.0501603,7.48124778 41.2952359,7.52258065 C41.5403115,7.56391351 41.7445412,7.60524637 41.8670789,7.64657923 L41.8670789,7.43991492 C41.8670789,7.02658632 41.7445412,6.69592343 41.4994656,6.44792627 C41.25439,6.1999291 40.8459307,6.07593052 40.2332417,6.07593052 C39.8247824,6.07593052 39.4163231,6.11726338 39.0487097,6.15859624 C38.6402504,6.1999291 38.313483,6.28259482 38.0275615,6.40659341 L37.7416399,4.46394895 C37.8641777,4.42261609 38.0684074,4.38128323 38.272637,4.33995037 C38.4768667,4.29861751 38.7219423,4.25728465 38.9670179,4.21595179 C39.2120934,4.17461893 39.457169,4.13328607 39.7430905,4.13328607 C40.0290121,4.13328607 40.2332417,4.09195321 40.5191632,4.09195321 Z M40.682547,11.1598724 C40.9276225,11.1598724 41.1318522,11.1598724 41.3360818,11.1598724 C41.5403115,11.1598724 41.7036952,11.1185395 41.8670789,11.1185395 L41.8670789,9.29989365 C41.7853871,9.25856079 41.6220034,9.25856079 41.4177737,9.21722793 C41.2135441,9.17589507 41.0501603,9.17589507 40.8867766,9.17589507 C40.682547,9.17589507 40.4374714,9.17589507 40.2740876,9.21722793 C40.069858,9.25856079 39.9064743,9.29989365 39.7430905,9.38255938 C39.5797068,9.4652251 39.457169,9.54789082 39.3754772,9.6718894 C39.2937853,9.79588798 39.2529394,9.96121943 39.2529394,10.1678837 C39.2529394,10.5398795 39.3754772,10.7878766 39.6205528,10.9532081 C39.9064743,11.0772067 40.2740876,11.1598724 40.682547,11.1598724 Z"
             id="path256"
             fill-rule="nonzero"
             style="fill:#143f60;fill-opacity:1" />
          <path
             d="M49.6686517,13.0198511 C48.9742709,13.0198511 48.4024279,12.9371854 47.9939685,12.8131868 C47.5446633,12.6891882 47.2178959,12.4825239 46.9728203,12.2345268 C46.7277447,11.9865296 46.564361,11.6558667 46.4418232,11.3252038 C46.3601313,10.9532081 46.3192854,10.5398795 46.3192854,10.085218 L46.3192854,0.702658632 L48.6883494,0.330662886 L48.6883494,9.58922368 C48.6883494,9.79588798 48.6883494,10.0025523 48.7291953,10.1678837 C48.7700412,10.3332152 48.8108872,10.4985466 48.933425,10.6225452 C49.0559627,10.7465438 49.1376546,10.8292095 49.3418843,10.9118752 C49.505268,10.9945409 49.7503436,11.0358738 50.0362651,11.0772067 L49.6686517,13.0198511 Z"
             id="path258"
             style="fill:#143f60;fill-opacity:1" />
          <path
             d="M5.1874332,17.3184686 C7.47480531,17.3184686 9.23118033,17.7317972 10.4565583,18.5584544 C11.6819362,19.3851117 12.2946251,20.7077632 12.2946251,22.5677419 C12.2946251,24.4277207 11.6819362,25.7917051 10.4157123,26.6183623 C9.1903344,27.4450195 7.39311345,27.8583481 5.10574133,27.8583481 L4.00290121,27.8583481 L4.00290121,33.0662886 L0.530997099,33.0662886 L0.530997099,17.6904644 C1.26622385,17.5251329 2.08314246,17.4424672 2.94090701,17.3598015 C3.79867155,17.3184686 4.57474424,17.3184686 5.1874332,17.3184686 Z M5.43250878,20.2944346 C5.1874332,20.2944346 4.94235761,20.2944346 4.69728203,20.3357675 C4.45220644,20.3357675 4.24797679,20.3771003 4.08459307,20.3771003 L4.08459307,24.8823821 L5.1874332,24.8823821 C6.37196519,24.8823821 7.27057566,24.7170507 7.88326462,24.3863878 C8.49595358,24.0557249 8.7818751,23.435732 8.7818751,22.5264091 C8.7818751,22.0717476 8.70018323,21.7410847 8.53679951,21.4517547 C8.37341579,21.1624247 8.16918614,20.9557604 7.88326462,20.7490961 C7.59734311,20.5837646 7.22972973,20.459766 6.82127042,20.3771003 C6.37196519,20.3357675 5.92265995,20.2944346 5.43250878,20.2944346 Z"
             id="path260"
             fill-rule="nonzero"
             style="fill:#143f60;fill-opacity:1" />
          <path
             d="M25.2427852,27.1143566 C25.2427852,28.0236795 25.1202474,28.8916696 24.8343259,29.676994 C24.5484043,30.4623183 24.180791,31.1236441 23.6906398,31.6609713 C23.2004886,32.1982985 22.5877997,32.6116271 21.8934188,32.94229 C21.199038,33.23162 20.4229653,33.3969514 19.5243549,33.3969514 C18.6665903,33.3969514 17.8905176,33.23162 17.1961368,32.94229 C16.501756,32.6529599 15.889067,32.2396313 15.3989159,31.6609713 C14.9087647,31.1236441 14.5003054,30.4623183 14.2143839,29.676994 C13.9284624,28.8916696 13.8059246,28.0650124 13.8059246,27.1143566 C13.8059246,26.1637008 13.9693083,25.3370436 14.2552298,24.5930521 C14.5411513,23.8490606 14.9496106,23.1877348 15.4397618,22.6504077 C15.929913,22.1130805 16.5426019,21.6997519 17.2778287,21.4104218 C17.9722095,21.1210918 18.7482822,20.9557604 19.5652008,20.9557604 C20.4229653,20.9557604 21.199038,21.1210918 21.8934188,21.4104218 C22.5877997,21.6997519 23.2004886,22.1130805 23.6906398,22.6504077 C24.180791,23.1877348 24.5892503,23.8490606 24.8751718,24.5930521 C25.0794014,25.3370436 25.2427852,26.2050337 25.2427852,27.1143566 Z M21.8525729,27.1143566 C21.8525729,26.0810351 21.6483433,25.2543779 21.239884,24.6757178 C20.8314246,24.0970578 20.2595816,23.8077278 19.4835089,23.8077278 C18.7482822,23.8077278 18.1355932,24.0970578 17.7271339,24.6757178 C17.3186746,25.2543779 17.114445,26.0810351 17.114445,27.1143566 C17.114445,28.1476781 17.3186746,28.9743353 17.7271339,29.5529954 C18.1355932,30.1316554 18.7074362,30.4623183 19.4835089,30.4623183 C20.2595816,30.4623183 20.8314246,30.1729883 21.239884,29.5529954 C21.6483433,28.9330025 21.8525729,28.1476781 21.8525729,27.1143566 Z"
             id="path262"
             fill-rule="nonzero"
             style="fill:#143f60;fill-opacity:1" />
          <path
             d="M34.8007329,24.1797235 C34.5148114,24.0970578 34.147198,24.0143921 33.7387387,23.9317263 C33.3302794,23.8490606 32.9218201,23.8077278 32.4725149,23.8077278 C32.2682852,23.8077278 32.0232097,23.8077278 31.7372881,23.8490606 C31.4513666,23.8903935 31.247137,23.9317263 31.0837532,23.9730592 L31.0837532,32.9836228 L27.7752329,32.9836228 L27.7752329,21.8237504 C28.3470759,21.6170861 29.0823026,21.4104218 29.8583753,21.2450904 C30.634448,21.079759 31.5739044,20.9557604 32.5542067,20.9557604 C32.7175905,20.9557604 32.9626661,20.9557604 33.2077416,20.9970932 C33.4528172,21.0384261 33.6978928,21.0384261 33.9429684,21.079759 C34.188044,21.1210918 34.4331196,21.1624247 34.6781951,21.2037575 C34.9232707,21.2450904 35.1275004,21.3277561 35.33173,21.4104218 L34.8007329,24.1797235 Z"
             id="path264"
             style="fill:#143f60;fill-opacity:1" />
          <path
             d="M37.0472591,18.3104573 L40.3557795,17.7731301 L40.3557795,21.2450904 L44.3178348,21.2450904 L44.3178348,24.0143921 L40.3557795,24.0143921 L40.3557795,28.1476781 C40.3557795,28.8503368 40.4783173,29.4289968 40.7233929,29.8423254 C40.9684685,30.255654 41.4586196,30.4623183 42.1938464,30.4623183 C42.5614598,30.4623183 42.9290731,30.4209855 43.2966865,30.3796526 C43.6642999,30.2969869 44.0319133,30.2143212 44.3178348,30.0903226 L44.76714,32.6942928 C44.3586807,32.8596242 43.9093755,32.9836228 43.4192243,33.1076214 C42.9290731,33.23162 42.3163842,33.2729529 41.6220034,33.2729529 C40.7233929,33.2729529 39.9881661,33.1489543 39.3754772,32.9009571 C38.7627882,32.6529599 38.313483,32.3222971 37.9458696,31.8676356 C37.5782562,31.4129741 37.3331806,30.8756469 37.2106428,30.255654 C37.0881051,29.6356611 37.0064132,28.9330025 37.0064132,28.1476781 L37.0472591,18.3104573 Z"
             id="path266"
             style="fill:#143f60;fill-opacity:1" />
          <path
             d="M56.9392274,32.6529599 C56.3673843,32.8182914 55.6730035,32.9836228 54.774393,33.1076214 C53.8757826,33.23162 52.9363262,33.3142857 51.9968698,33.3142857 C51.0165674,33.3142857 50.1996488,33.1902871 49.505268,32.9009571 C48.8517331,32.6116271 48.320736,32.2396313 47.9531226,31.7849699 C47.5855092,31.2889755 47.2995877,30.7103155 47.136204,30.0489897 C46.9728203,29.3876639 46.8911284,28.6436725 46.8911284,27.8170152 L46.8911284,21.2450904 L50.1996488,21.2450904 L50.1996488,27.4036866 C50.1996488,28.478341 50.3221866,29.2636654 50.6081081,29.7183268 C50.8940296,30.2143212 51.4250267,30.4209855 52.2010994,30.4209855 C52.446175,30.4209855 52.6912506,30.4209855 52.9363262,30.3796526 C53.2222477,30.3383197 53.4264773,30.3383197 53.630707,30.2969869 L53.630707,21.2037575 L56.9392274,21.2037575 L56.9392274,32.6529599 Z"
             id="path268"
             style="fill:#143f60;fill-opacity:1" />
          <path
             d="M70.132463,31.5783056 C70.132463,33.52095 69.6423118,34.9262673 68.6620095,35.8769231 C67.6817071,36.8275789 66.2112536,37.2822403 64.1689571,37.2822403 C63.4745763,37.2822403 62.7393495,37.1995746 62.0449687,37.075576 C61.3505879,36.9515775 60.6562071,36.786246 60.084364,36.5795817 L60.6562071,33.7689472 C61.1872042,33.9756115 61.7182013,34.1409429 62.2900443,34.2649415 C62.8618873,34.3889401 63.5154222,34.430273 64.250649,34.430273 C65.1901054,34.430273 65.8844862,34.2236086 66.2520996,33.81028 C66.6605589,33.3969514 66.8239426,32.8596242 66.8239426,32.1982985 L66.8239426,31.7849699 C66.4563292,31.9503013 66.0887158,32.0742999 65.7211025,32.1569656 C65.3534891,32.2396313 64.9450298,32.2809642 64.4957245,32.2809642 C62.9027332,32.2809642 61.6365094,31.7849699 60.7787448,30.8343141 C59.9209803,29.8836583 59.512521,28.5196739 59.512521,26.7836937 C59.512521,25.9157037 59.6350588,25.1303793 59.9209803,24.4277207 C60.2069018,23.725062 60.5745152,23.1050691 61.1055123,22.6090748 C61.5956635,22.1130805 62.2491984,21.6997519 62.9844251,21.4104218 C63.7196519,21.1210918 64.5774164,20.9970932 65.4760269,20.9970932 C65.8844862,20.9970932 66.2929455,20.9970932 66.7014048,21.0384261 C67.1098641,21.079759 67.5591693,21.1210918 67.9676286,21.2037575 C68.376088,21.2450904 68.7845473,21.3277561 69.1521606,21.4104218 C69.519774,21.4930876 69.8465415,21.5757533 70.1733089,21.658419 L70.132463,31.5783056 Z M62.8618873,26.7423609 C62.8618873,28.6023396 63.5971141,29.5529954 65.1084135,29.5529954 C65.4351809,29.5529954 65.7619484,29.5116625 66.0478699,29.4289968 C66.3337914,29.3463311 66.578867,29.2223325 66.7830967,29.0983339 L66.7830967,23.7663949 C66.6197129,23.725062 66.4154833,23.725062 66.2112536,23.6837292 C66.007024,23.6423963 65.7211025,23.6423963 65.4351809,23.6423963 C64.5774164,23.6423963 63.9238815,23.9317263 63.4745763,24.5103864 C63.066117,25.1303793 62.8618873,25.8743708 62.8618873,26.7423609 Z"
             id="path270"
             fill-rule="nonzero"
             style="fill:#143f60;fill-opacity:1" />
          <path
             d="M77.4030386,20.9144275 C78.383341,20.9144275 79.2002596,21.0384261 79.8537945,21.2450904 C80.5073294,21.4517547 81.0383265,21.7824176 81.4059398,22.1957462 C81.8143991,22.6090748 82.0594747,23.1050691 82.2228585,23.725062 C82.3862422,24.3037221 82.467934,25.0063807 82.467934,25.7090393 L82.467934,32.6529599 C81.9777829,32.7769585 81.324248,32.9009571 80.5073294,33.0249557 C79.6904107,33.1489543 78.6284166,33.23162 77.4438846,33.23162 C76.7086578,33.23162 76.014277,33.1489543 75.401588,33.0249557 C74.7888991,32.9009571 74.257902,32.6529599 73.8085967,32.3636299 C73.3592915,32.0742999 73.032524,31.6609713 72.7874485,31.164977 C72.5423729,30.6689826 72.4198351,30.0489897 72.4198351,29.3463311 C72.4198351,28.6436725 72.5423729,28.0650124 72.8282944,27.6103509 C73.1142159,27.1143566 73.4818293,26.7423609 73.9311345,26.4530308 C74.3804398,26.1637008 74.9114369,25.9570365 75.5241258,25.8330379 C76.0959689,25.7090393 76.7495037,25.6263736 77.3621927,25.6263736 C77.770652,25.6263736 78.1791113,25.6263736 78.5058788,25.6677065 C78.8326462,25.7090393 79.1185677,25.7503722 79.3227974,25.8330379 L79.3227974,25.502375 C79.3227974,24.923715 79.1594137,24.4690535 78.8326462,24.1383906 C78.5058788,23.8077278 77.8931898,23.6423963 77.0762712,23.6423963 C76.5044282,23.6423963 75.9734311,23.6837292 75.401588,23.7663949 C74.8705909,23.8490606 74.3804398,23.9730592 73.9719805,24.0970578 L73.5635211,21.4104218 C73.7677508,21.369089 74.0128264,21.2864233 74.2987479,21.2037575 C74.5846694,21.1210918 74.9114369,21.079759 75.2382043,21.0384261 C75.5649718,20.9970932 75.9325851,20.9557604 76.3001985,20.9144275 C76.6678119,20.9557604 77.0354253,20.9144275 77.4030386,20.9144275 Z M77.6889601,30.7103155 C78.0157276,30.7103155 78.342495,30.7103155 78.6284166,30.6689826 C78.9143381,30.6276498 79.1594137,30.6276498 79.3227974,30.5863169 L79.3227974,28.0650124 C79.2002596,28.0236795 78.9960299,28.0236795 78.7101084,27.9823467 C78.4241869,27.9410138 78.2199572,27.9410138 77.9748817,27.9410138 C77.6481142,27.9410138 77.3621927,27.9410138 77.1171171,27.9823467 C76.8311956,28.0236795 76.58612,28.1063453 76.3818904,28.189011 C76.1776607,28.3130096 76.014277,28.4370082 75.8917392,28.6023396 C75.7692014,28.767671 75.7283555,29.0156682 75.7283555,29.2636654 C75.7283555,29.8009926 75.8917392,30.1316554 76.2593526,30.3383197 C76.6269659,30.544984 77.0762712,30.7103155 77.6889601,30.7103155 Z"
             id="path272"
             fill-rule="nonzero"
             style="fill:#143f60;fill-opacity:1" />
          <path
             d="M90.146969,33.2729529 C89.1666667,33.2729529 88.390594,33.1489543 87.818751,32.94229 C87.206062,32.7356257 86.7567568,32.4876285 86.3891434,32.1156328 C86.02153,31.7849699 85.8173004,31.3303084 85.6947626,30.8343141 C85.5722248,30.3383197 85.4905329,29.7596597 85.4905329,29.1396668 L85.4905329,16.1611485 L88.7990533,15.6238213 L88.7990533,28.478341 C88.7990533,28.767671 88.8398992,29.0570011 88.8807452,29.3049982 C88.9215911,29.5529954 89.0032829,29.7596597 89.1258207,29.9249911 C89.2483585,30.0903226 89.4525882,30.2143212 89.6568178,30.3383197 C89.9018934,30.4623183 90.2286609,30.5036512 90.5962742,30.544984 L90.146969,33.2729529 Z"
             id="path274"
             style="fill:#143f60;fill-opacity:1" />
        </g>
        <path
           d="M12.4526204,16.7195143 C12.2098264,17.3432732 11.886101,18.2581195 12.4526204,18.4244552 C13.0191399,18.6323748 14.9210265,19.0066301 15.3661489,19.4640533 C15.8112713,19.9214765 16.2968594,20.1293961 17.0252415,19.4640533 C17.7536236,18.7987105 18.4010744,18.8818784 17.0252415,17.5511928 C15.6494086,16.2205072 15.6494086,15.4719966 14.9614922,15.4719966 C14.2735757,15.4719966 12.7763458,15.8878358 12.4526204,16.7195143 Z M20.060167,14.141311 C19.0080595,13.7670557 17.3894326,13.7670557 16.7419818,14.0581432 C15.3661489,14.6819021 14.9614922,15.0977413 16.1754624,15.8462519 C19.1699222,17.6759446 18.6438684,18.0917838 20.0197013,16.3868429 C21.3955342,14.6819021 21.8001909,14.723486 20.060167,14.141311 Z M18.7652654,9.89975079 C18.4010744,11.1472685 17.5512952,11.6462756 17.3489669,12.3532023 C17.1466385,13.060129 17.5108296,13.1017129 18.6034027,13.0185451 C20.1410983,12.8522094 20.7076177,13.0185451 21.1122745,13.1432969 C21.5169312,13.2680486 22.1239163,14.0997271 22.64997,12.6442898 C23.1760238,11.1888524 23.6211462,10.357174 23.0141611,9.60866332 C22.64997,9.19282408 22.3667103,8.65223307 21.2336715,8.81856876 C20.060167,8.98490446 19.0889908,8.77698484 18.7652654,9.89975079 Z M11.9265667,14.5571503 C13.1810026,14.2660628 13.4642623,14.2244789 14.0712474,14.2244789 C14.6782325,14.2244789 15.3661489,13.8502236 14.6782325,13.1017129 C13.990316,12.3532023 13.626125,11.8957791 12.8572772,11.6046917 C12.0884294,11.3136042 11.4814443,11.1888524 11.1577189,11.9373631 C10.8744592,12.6027058 9.8223517,12.8106255 10.1865428,13.60072 C10.5507338,14.4323985 10.7125965,14.8482377 11.9265667,14.5571503 Z M14.3140414,11.3967721 C14.7996295,11.7710274 15.6089429,12.8937933 16.2968594,11.7294434 C16.9847758,10.5650936 17.6322266,9.98291864 17.834555,9.44232762 C17.9964176,8.86015269 17.7940893,8.77698484 17.0252415,8.40272952 C16.2563937,8.07005813 15.7708056,7.61263497 15.2447519,7.86213851 C14.6782325,8.11164205 13.6665906,8.98490446 13.2214682,9.69183117 C12.7763458,10.3987579 12.6144831,10.357174 12.8168115,10.6482614 C13.2214682,11.3551881 13.8284533,11.0641007 14.3140414,11.3967721 Z M16.9443101,7.44629927 C17.955952,7.48788319 17.834555,7.27996357 18.9675938,7.57105104 C20.1006326,7.86213851 20.5052894,8.07005813 20.8290148,7.07204395 C21.1527401,6.07402978 21.3550685,5.57502269 21.3550685,5.11759952 C21.3955342,4.66017636 21.5573969,4.45225674 20.3434267,4.57700851 C19.1294565,4.74334421 18.077349,4.28592104 17.6322266,4.41067282 C17.1871042,4.53542459 17.0657072,5.28393522 16.9038445,5.61660661 C16.4587221,6.61462079 15.9326683,7.44629927 16.9443101,7.44629927 Z M18.320143,3.66216218 C19.3317849,3.53741041 20.2220297,3.82849788 20.545755,3.8700818 C20.8694804,3.91166573 19.9792356,0.7512875 19.8578386,0.293864336 C19.7364416,-0.205142752 19.1294565,-0.121974904 18.8461968,0.95920712 C18.5629371,2.04038915 18.2796774,2.70573193 18.1178147,3.03840332 C17.955952,3.32949079 17.834555,3.74533003 18.320143,3.66216218 Z M26.2918806,14.5155664 C25.1183761,13.9333914 24.9969791,13.8086396 24.4709253,13.8086396 C23.9448716,13.8086396 23.1760238,13.6838879 22.4476417,14.8898217 C21.9215879,15.7215002 20.6671521,16.5947626 20.5052894,17.2601053 C20.3434267,17.8838642 20.6266864,18.3828713 21.9215879,18.2997034 C23.2164895,18.1749517 23.6211462,18.549207 24.4304597,18.9234623 C25.2397731,19.2977176 25.6039642,20.0462283 26.0086209,18.9234623 C26.4132776,17.8006964 26.8988657,17.3432732 27.1416598,16.5531786 C27.3035224,15.7215002 27.4653851,15.0977413 26.2918806,14.5155664 Z M25.4421015,13.4343843 C26.9797971,13.6838879 27.3439881,13.8918075 27.8295762,13.4343843 C28.3151643,12.9769612 28.8816837,12.7690415 27.2225911,11.2304364 C25.5634985,9.69183117 26.1704836,10.0245026 25.8062925,9.65024724 C25.4825672,9.27599193 24.6732537,9.48391155 24.511391,10.5235096 C24.3090626,11.8126113 23.9448716,13.1848808 25.4421015,13.4343843 Z M22.4881074,8.40272952 C23.3783522,9.02648838 23.7830089,9.52549547 24.1471999,9.48391155 C24.511391,9.44232762 24.6732537,9.19282408 24.632788,8.73540091 C24.5923224,8.31956167 22.8927641,6.73937256 22.64997,6.32353332 C22.407176,5.949278 22.3262447,6.19878155 22.285779,6.61462079 C22.2453133,7.57105104 21.5978625,7.77897066 22.4881074,8.40272952 Z M22.1239163,19.1729658 C21.2741372,18.9234623 20.6671521,18.8402945 19.8983043,18.8402945 C19.0889908,18.8402945 18.6843341,18.9234623 18.320143,19.4640533 C17.7536236,20.3373157 16.8633788,20.753155 17.6726923,21.0858264 C18.4820057,21.4184977 18.6843341,21.8759209 20.0197013,22.0422566 C21.3550685,22.2085923 21.2336715,22.7491833 22.164382,21.0026585 C22.5690387,20.1293961 22.9736954,19.4224694 22.1239163,19.1729658 Z M11.4005129,19.7967247 C10.6316652,20.6284032 9.8223517,21.0026585 10.6721308,21.293746 C11.5623756,21.5432495 12.2098264,21.3353299 13.2619339,21.6264174 C14.2735757,21.9175048 14.7186981,21.9590888 15.2852176,21.3769138 C15.8112713,20.8363228 15.8922027,20.7947389 14.9614922,20.2125639 C14.0712474,19.630389 13.1810026,19.5056372 12.4930861,19.4640533 C11.8456353,19.4224694 11.886101,19.2561337 11.4005129,19.7967247 Z M6.74696055,19.4640533 C8.40605314,19.7135569 8.20372478,19.8798926 9.01303824,19.8798926 C9.8223517,19.9214765 9.74142035,19.2977176 10.2674741,18.7987105 C11.1172532,18.0501999 11.4409786,17.1353536 11.4814443,16.5947626 C11.52191,16.0957555 11.3600473,15.2224931 10.3888711,14.8482377 C9.41769497,14.4739824 9.13443526,14.4739824 8.04186208,15.264077 C6.94928891,16.0957555 6.6660292,16.4700108 6.26137247,17.5096089 C5.81625007,18.6323748 5.08786795,19.2145498 6.74696055,19.4640533 Z M7.15161728,22.915519 C8.48698449,22.4165119 8.20372478,22.2917601 8.81070987,21.834337 C9.41769497,21.3769138 9.05350391,21.0858264 8.48698449,20.7947389 C7.92046506,20.5036514 6.98975459,19.8798926 6.42323516,19.9214765 C5.81625007,19.9630604 5.29019632,20.0046443 5.29019632,20.6284032 C5.29019632,21.7927531 5.1687993,22.4580958 5.45205901,22.915519 C5.69485305,23.3729422 5.81625007,23.3729422 7.15161728,22.915519 Z M2.21480517,28.7372684 C3.0645843,29.2778594 3.99529478,29.9432022 4.76414257,29.4026112 C5.53299036,28.8620201 6.26137247,28.0303417 6.86835757,27.1154953 C7.51580833,26.200649 7.79906805,25.9927294 8.12279343,25.660058 C8.44651881,25.2858027 9.01303824,24.2046207 7.75860237,24.0798689 C6.50416651,23.9551171 5.00693661,24.2046207 4.39995151,24.2462046 C3.79296642,24.2877885 3.34784401,24.4125403 2.70039324,24.6204599 C1.40549171,24.9947152 1.16269767,25.2858027 0.798506612,26.2422329 C0.474781228,27.0323275 1.32456036,28.1966774 2.21480517,28.7372684 Z M2.29573651,23.6640296 C3.42877536,23.7056136 3.91436344,23.7056136 4.23808882,23.0402708 C4.5618142,22.374928 3.99529478,21.4184977 4.07622613,20.753155 C4.15715747,20.0878122 3.46924103,20.753155 3.18598132,21.252162 C2.90272161,21.7511691 2.6194619,22.2085923 2.33620219,22.7907672 C2.05294248,23.3729422 1.76968276,23.6640296 2.29573651,23.6640296 Z M6.74696055,28.9867719 C6.13997545,29.5689469 5.08786795,30.5253771 4.15715747,31.0659681 C3.30737834,31.5649752 2.45759921,31.8560627 3.14551565,32.6461572 C3.83343209,33.4362518 3.87389776,33.3946679 4.15715747,33.7689232 C4.44041718,34.1015946 4.03576045,34.3095142 5.24973064,33.5610036 C6.46370084,32.8124929 6.86835757,31.8560627 7.87999939,31.5649752 C8.85117554,31.2738877 9.17490093,30.9828003 9.41769497,30.608545 C9.66048901,30.2758736 9.86281737,29.6105308 9.62002333,29.0283558 C9.37722929,28.4461809 8.60838151,28.404597 8.24419045,28.3214291 C7.92046506,28.2382613 7.35394564,28.4461809 6.74696055,28.9867719 Z M0.596178247,31.1907199 C1.44595738,31.1907199 2.49806488,31.2738877 2.90272161,31.1907199 C3.30737834,31.107552 3.95482911,30.3174575 3.14551565,30.1927057 C2.33620219,30.02637 1.20316334,29.1946915 0.960369304,28.9036041 C0.717575266,28.6125166 0.191521517,28.945188 0.11059017,29.5689469 C0.0296588244,30.1927057 -0.253600887,31.1907199 0.596178247,31.1907199 Z M2.70039324,33.7273393 C2.57899623,33.1451643 1.64828575,32.1887341 1.20316334,31.9808144 C0.758040939,31.7313109 0.0296588244,31.3570556 0.0296588244,32.230318 C0.0296588244,33.1035804 -0.0512725216,34.4758499 0.0701244975,35.3075284 C0.191521517,36.0976229 0.191521517,36.056039 0.353384209,36.0144551 C1.08176632,35.8065355 1.93154546,35.5570319 2.41713353,35.2659444 C2.86225594,34.9332731 2.78132459,34.3510981 2.70039324,33.7273393 Z M3.75250074,41.2956134 C4.52134853,41.004526 5.97811276,39.2164172 6.90882324,38.7174101 C7.79906805,38.2184031 7.63720535,37.719396 7.67767103,37.0540532 C7.7181367,36.3887104 7.39441132,36.3887104 6.98975459,35.9728712 C6.62556353,35.5986158 5.93764709,35.1411927 5.57345603,35.1411927 C5.20926497,35.1411927 4.15715747,35.2659444 3.38830969,35.7233676 C2.57899623,36.1392069 2.37666786,36.1807908 1.48642305,36.5134622 C0.151055844,37.0540532 0.474781228,37.8025638 0.63664392,38.3847387 C0.798506612,38.9669137 0.919903631,39.7985922 1.52688873,40.422351 C2.21480517,41.0876938 2.98365296,41.6282848 3.75250074,41.2956134 Z M8.08232776,35.515448 C8.7702442,35.0164409 9.33676362,34.2679303 9.98421439,34.0600106 C10.6316652,33.852091 10.9149249,33.5610036 11.3195816,33.3946679 C11.6837727,33.2699161 11.886101,32.8956608 11.2386503,32.2719019 C10.5507338,31.6481431 10.3079398,31.107552 9.37722929,31.4402234 C8.44651881,31.7728948 7.92046506,32.3966537 7.43487699,32.9372447 C6.90882324,33.4778357 6.46370084,33.6441714 6.90882324,34.392682 C7.2730143,35.0996087 7.39441132,36.0144551 8.08232776,35.515448 Z M11.1577189,29.3194433 C11.6028413,30.1095379 12.2098264,30.9828003 12.5335518,31.5649752 C12.8572772,32.1887341 12.6144831,32.8540769 14.2735757,32.3550698 C15.9326683,31.8560627 16.6610504,31.9808144 17.4298982,31.4818074 C18.198746,30.9412163 18.6438684,30.8580485 18.320143,30.1927057 C17.9964176,29.5273629 17.7940893,29.0283558 16.2563937,28.8620201 C14.7186981,28.6541005 14.5973011,28.6541005 13.5451936,28.6956844 C12.4930861,28.7788523 10.7935278,28.6956844 11.1577189,29.3194433 Z M9.53909199,27.4481667 C10.3484054,27.7808381 11.2386503,28.2798452 12.1693607,27.1570793 C13.1000712,26.0343133 13.5856593,25.9927294 13.6665906,25.2026348 C13.7879877,24.4125403 14.3949727,23.9135332 13.9093847,23.4145261 C13.4642623,22.915519 12.7763458,22.8739351 12.0884294,22.6660155 C11.4005129,22.4165119 9.53909199,21.6680013 9.70095468,23.2897743 C9.78188602,23.9551171 9.90328304,24.8283795 9.62002333,25.4521384 C9.37722929,26.0343133 8.72977853,27.1154953 9.53909199,27.4481667 Z M15.6898743,22.3333441 C15.4470802,23.0818547 15.6089429,22.7075994 15.4470802,23.0818547 C15.2042862,23.7887814 14.5973011,25.5353062 14.4354384,25.9927294 C14.2735757,26.4917365 13.7070563,27.4897507 14.9210265,27.6145024 C16.1754624,27.7808381 17.1061728,27.6560863 17.5512952,27.7392542 C17.9964176,27.822422 18.3606087,28.1135095 18.8461968,27.4897507 C19.2913192,26.8659918 19.7364416,26.1174812 20.1410983,25.5768901 C20.545755,25.0362991 20.7885491,24.537292 20.4648237,23.8303653 C20.1410983,23.1234386 19.4936476,23.2481904 18.4010744,22.7907672 C17.3085012,22.3333441 15.9326683,21.5848334 15.6898743,22.3333441 Z M22.64997,25.8679776 C24.5518567,26.5749043 24.1876656,24.9947152 24.511391,24.038285 C24.8351164,23.1234386 25.1588418,22.7075994 25.1588418,21.834337 C25.1993074,20.9610746 25.2802388,20.6699871 24.8351164,20.4620675 C23.5402149,19.7967247 23.6211462,20.8363228 23.2569551,21.4600817 C22.7713671,22.2501762 22.1239163,23.1650226 22.042985,24.1630367 C21.9620536,25.0778831 21.8811223,25.5768901 22.64997,25.8679776 Z M30.1765852,25.0778831 C30.702639,24.038285 30.7835703,23.7056136 30.9858987,23.1234386 C31.1882271,22.5412637 31.3096241,21.6264174 30.6621733,20.9610746 C30.0147225,20.2541479 29.5291345,20.0046443 28.598424,19.9214765 C27.6677135,19.8383086 26.0895523,19.3808855 26.0086209,20.6284032 C25.9276896,21.5848334 25.9276896,22.3333441 25.6444299,23.1234386 C25.3611701,23.9551171 25.1183761,24.3293724 25.0779104,24.8283795 C25.0374448,25.3273866 24.9565134,25.3689705 26.0086209,25.2442188 C27.0607284,25.119467 27.9105075,25.2858027 28.4365613,25.4521384 C28.9221494,25.660058 29.6505315,26.1174812 30.1765852,25.0778831 Z M28.962615,18.7571266 C30.1765852,19.3393015 30.824036,19.7967247 31.3905554,19.4640533 C31.9570748,19.1313819 32.2403346,18.2581195 32.4831286,17.8006964 C32.7259226,17.3848571 32.8877853,17.0106018 32.3212659,16.6363465 C31.7547465,16.2620912 31.1477614,15.5967484 30.5003106,15.0145734 C29.8528598,14.4323985 29.1244777,13.9333914 28.841218,14.3908146 C28.5579583,14.8482377 28.3556299,15.1809091 28.1937673,15.5135805 C27.1011941,17.9254481 27.7891105,18.1749517 28.962615,18.7571266 Z M32.5235943,21.5016656 C33.3733734,22.2501762 34.2636182,22.374928 35.032466,22.4580958 C35.8013138,22.5412637 36.2869019,22.374928 35.9631765,21.8759209 C35.6394511,21.3769138 34.6278093,19.630389 34.1017555,19.1313819 C33.5757018,18.6323748 33.0091823,19.2145498 32.8473196,19.5888051 C32.4426629,20.5868193 31.9166092,20.9610746 32.5235943,21.5016656 Z M35.7608481,24.9947152 C36.1655048,24.4125403 36.2869019,23.996701 35.7608481,23.5392779 C35.2347944,23.1234386 34.1826869,23.45611 33.5352361,23.1234386 C32.8877853,22.7907672 32.3212659,23.3313582 32.1594032,23.7887814 C31.8761435,24.4957081 31.3500897,25.3273866 32.1594032,25.7432258 C32.9687167,26.1590651 33.0091823,26.2838169 34.1017555,26.1590651 C35.2347944,25.9927294 35.3157257,25.5768901 35.7608481,24.9947152 Z M28.2342329,29.9432022 C28.6388897,28.7372684 29.0030807,27.9055899 28.719821,27.323415 C28.477027,26.74124 27.9914389,26.7828239 26.9797971,26.8244079 C25.9681552,26.8659918 24.9969791,26.9491596 25.0779104,28.3214291 C25.1183761,29.5273629 25.1588418,29.5689469 24.7946507,30.566961 C24.4304597,31.5649752 24.4709253,31.689727 25.6039642,31.7313109 C26.737003,31.7728948 26.8584,32.1055662 27.3439881,31.6065591 C27.7891105,31.149136 27.8295762,31.149136 28.2342329,29.9432022 Z M23.1760238,31.2323038 C23.7425432,31.0243842 23.8639402,29.9432022 23.9448716,29.2778594 C24.0258029,28.6956844 24.2281313,27.5729185 23.7020775,27.281831 C23.1760238,26.9907436 22.7309014,26.9075757 22.0834506,26.6580722 C21.3955342,26.4085686 20.424358,26.8659918 20.302961,27.5313346 C20.181564,28.1966774 20.1006326,28.6956844 19.8578386,29.6521147 C19.5745789,30.608545 19.93877,30.8164646 21.0718088,30.8996324 C22.164382,30.9828003 22.6095044,31.3986395 23.1760238,31.2323038 Z M16.4182564,35.9728712 C17.3894326,36.7629657 17.9964176,37.5114763 19.1294565,37.0956371 C20.2220297,36.7213818 20.9099461,35.9312872 21.4359999,35.7649515 C21.9620536,35.5986158 21.9215879,34.8085213 21.7192596,33.7273393 C21.5169312,32.6461572 21.4359999,32.6461572 20.3838924,32.0223984 C19.3317849,31.3986395 18.3606087,31.3154717 17.9964176,32.1887341 C17.6322266,33.0204125 17.6322266,32.9788286 17.2680355,33.3946679 C16.7015161,34.1847624 15.4470802,35.1827766 16.4182564,35.9728712 Z M12.8572772,38.0104834 C13.2214682,38.5094905 13.3833309,39.0500815 14.1521787,38.3015709 C14.8805608,37.5530603 14.6377668,36.6382139 14.8805608,35.7649515 C15.1233549,34.9332731 15.5684773,34.3095142 15.4470802,33.893675 C15.2852176,33.4778357 14.4759041,33.6025875 13.5451936,34.1015946 C12.6144831,34.6006017 12.5335518,34.434266 12.2907578,34.4758499 C11.1577189,34.6837695 10.0651457,34.974857 9.8223517,35.3491123 C9.57955766,35.7233676 9.78188602,35.9312872 11.0767876,36.5550461 C12.2907578,37.137221 12.4930861,37.5114763 12.8572772,38.0104834 Z M5.53299036,41.545117 C5.1687993,42.085708 4.88553959,42.2520437 6.26137247,42.6678829 C7.63720535,43.0837222 7.75860237,43.707481 8.89164122,43.4163936 C10.0246801,43.1253061 11.0363219,42.1688758 11.52191,41.7114527 C12.007498,41.2540295 12.2502921,40.6718546 12.007498,39.7154243 C11.764704,38.7589941 11.3195816,38.7174101 10.7125965,38.0936513 C10.1056114,37.4283085 9.41769497,37.2203889 8.81070987,37.9688995 C8.20372478,38.7589941 7.63720535,39.0084976 7.39441132,39.2995851 C6.30183814,40.5471028 5.89718141,41.004526 5.53299036,41.545117 Z M7.92046506,44.788663 C7.67767103,44.3728238 7.15161728,44.4975756 6.34230382,44.1233203 C5.53299036,43.7490649 4.44041718,42.7094668 4.1166918,42.5431312 C3.6715694,42.2520437 2.13387382,42.4599633 2.6194619,43.2084739 C3.10504997,43.9569846 4.96647093,46.9510271 5.65438738,47.1589467 C6.34230382,47.3668663 6.6660292,47.1173628 7.43487699,46.3272682 C8.1632591,45.4540058 8.1632591,45.2045023 7.92046506,44.788663 Z M12.6144831,45.9945968 C13.5451936,45.2460862 14.0307817,45.4955898 14.7591638,45.2460862 C15.4875459,44.9965827 15.2852176,44.3312399 14.9614922,43.6243132 C14.6377668,42.9173865 14.3545071,42.2936276 13.4642623,42.0441241 C12.5740175,41.7946205 12.2098264,41.9609562 11.6028413,42.626299 C10.9958562,43.2500579 10.5911995,43.5411453 10.1056114,44.0817363 C9.53909199,44.7054952 8.24419045,46.1609325 8.00139641,46.7431075 C7.75860237,47.3668663 7.39441132,48.4480484 8.28465612,48.6975519 C9.17490093,48.9470555 9.45816064,50.1114053 10.2674741,49.4044786 C11.1981846,48.7391358 11.643307,46.7846914 12.6144831,45.9945968 Z M16.5396534,43.16689 C17.0252415,43.6658971 17.4703639,44.0401524 18.7652654,43.5411453 C20.1006326,43.0421382 20.424358,43.2500579 20.4648237,42.5431312 C20.5052894,41.8777884 20.0197013,40.962942 19.8983043,40.0896796 C19.7769073,39.2580012 19.6959759,38.5926584 18.5224714,38.5094905 C17.3894326,38.4263227 16.3777907,38.3847387 15.2447519,38.8837458 C14.5163698,39.2164172 14.3545071,40.3391832 14.9614922,41.1708617 C15.5684773,42.1272919 16.0540653,42.6678829 16.5396534,43.16689 Z M25.5230328,38.259987 C25.8062925,37.5530603 26.1704836,37.3867246 25.3207045,36.9708853 C24.511391,36.59663 24.3495283,36.6382139 23.2569551,36.6797979 C22.164382,36.7213818 21.2741372,36.2639586 21.1932058,37.8441477 C21.1527401,38.9669137 20.9908775,39.8401761 21.6383282,40.9213581 C22.285779,42.0441241 22.407176,42.8758025 23.1355581,41.8362044 C23.9044059,40.7966063 23.9044059,40.7550224 24.632788,40.0480957 C25.4016358,39.4243368 25.2397731,38.9669137 25.5230328,38.259987 Z M23.4997492,35.7649515 C24.5518567,35.8065355 25.7658269,35.7233676 26.372812,35.3491123 C26.9393314,34.974857 26.9797971,34.6006017 26.9393314,33.7273393 C26.8988657,32.8540769 26.8179344,32.7293251 25.5230328,32.770909 C24.2281313,32.8124929 23.4188178,32.6461572 23.4997492,33.7273393 C23.5402149,34.392682 22.4476417,35.7233676 23.4997492,35.7649515 Z M31.1477614,32.6461572 C30.5003106,32.5629894 29.5696001,32.1471501 28.6388897,32.3550698 C27.7081792,32.5629894 27.8700419,33.2283322 27.7486448,34.5590177 C27.6272478,35.8481194 27.2225911,36.3055425 27.4653851,37.3867246 C27.7081792,38.4679066 29.0840121,39.4243368 29.6505315,39.7570082 C30.2170509,40.0896796 30.2575166,38.9253298 30.7431047,37.9273156 C31.2286927,36.9708853 30.8645017,36.056039 31.3096241,34.6421856 C31.7142808,33.3946679 31.7952122,32.7293251 31.1477614,32.6461572 Z M27.8295762,46.2441004 C29.4077374,46.2441004 30.7835703,45.0381666 30.7835703,43.2500579 C30.7835703,42.2520437 30.3789136,41.5867009 30.0147225,41.1292777 C29.6909972,40.7550224 29.3672718,40.5471028 29.2863404,40.5055189 C28.962615,40.2975993 28.598424,40.1728475 28.2746986,39.9649279 C28.0723702,39.8401761 27.7891105,39.4659208 27.5463165,39.1748333 C27.5058508,39.6322565 27.3844538,39.8401761 27.2225911,39.9649279 C26.8988657,40.2560153 26.6965373,40.3391832 26.372812,40.4639349 C26.1300179,40.5886867 24.7946507,41.4203652 24.7946507,43.16689 C24.7946507,43.707481 24.9565134,44.248072 25.1993074,44.6639113 C25.7658269,45.6619255 26.737003,46.2441004 27.8295762,46.2441004 Z M34.4254809,31.149136 C34.8706033,30.0679539 35.1133973,29.9016182 34.9515346,28.7372684 C34.789672,27.5729185 34.7087406,27.1154953 33.6970988,27.0323275 C32.685457,26.9491596 32.685457,27.5729185 31.3096241,27.0323275 C30.2575166,26.6164882 30.4193793,27.5313346 29.8528598,27.6145024 C29.2863404,27.6976703 29.4886688,28.6125166 29.4482031,29.2778594 C29.3672718,30.3174575 27.9914389,31.3986395 29.8933255,31.689727 C31.8356778,31.9392305 32.0380062,32.3134858 32.806854,32.3550698 C33.5757018,32.3966537 33.9803585,32.230318 34.4254809,31.149136 Z M38.7957736,31.6481431 C38.7148422,31.107552 38.8362393,29.4026112 38.5934452,28.8204362 C38.3101855,28.2382613 37.9459945,28.4877648 37.258078,28.1135095 C36.5701616,27.7392542 36.4487645,27.864006 36.2464362,28.3630131 C35.9631765,29.1115237 35.3561914,31.4402234 35.9631765,32.770909 C36.3273675,33.5610036 37.015284,33.1451643 38.2292542,33.1451643 C39.4027587,33.1451643 38.8767049,32.1887341 38.7957736,31.6481431 Z M37.4604064,27.323415 C38.3101855,27.6145024 38.5125139,27.4481667 38.2697198,27.0323275 C38.0269258,26.6164882 37.7032004,24.6204599 37.2985437,24.6204599 C36.5296959,24.578876 36.1250392,25.5353062 36.2464362,26.200649 C36.4082989,26.8244079 36.6106272,27.0323275 37.4604064,27.323415 Z M37.8650631,34.392682 C36.8534213,33.6441714 35.8822451,34.0184267 35.153863,33.5194196 C34.4254809,32.9788286 33.4947704,33.893675 32.928251,33.893675 C32.4021972,33.9352589 32.4021972,34.1847624 32.3617316,34.8501052 C32.2403346,35.7233676 31.9166092,36.3887104 33.2115107,36.6382139 C34.5064122,36.8877175 35.3157257,36.8045496 35.9631765,37.0540532 C36.6106272,37.3035567 37.7436661,37.8441477 38.1078571,36.9708853 C38.4315825,36.0976229 38.8767049,35.1411927 37.8650631,34.392682 Z M37.5818034,38.1352352 C36.4082989,37.9273156 35.3157257,37.719396 34.3040839,37.6362281 C33.2924421,37.5530603 32.1594032,37.0956371 31.7547465,38.0520674 C31.2286927,39.2995851 30.9049673,40.7134385 31.1477614,41.9609562 C31.4310211,43.3748096 33.2924421,43.0421382 34.2231525,42.5847151 C35.153863,42.085708 35.032466,42.4183794 36.0845735,41.9609562 C37.0962153,41.545117 37.8245974,40.422351 37.9864601,39.5906725 C38.1078571,38.7174101 38.7553079,38.3431548 37.5818034,38.1352352 Z M18.6438684,47.8658734 C18.7247998,48.3648805 18.8866625,49.2381429 20.4648237,48.3232966 C22.042985,47.4084503 21.8811223,47.3252824 23.1760238,46.8262753 C24.4709253,46.2856843 25.0374448,46.1609325 24.6732537,45.4955898 C24.3495283,44.830247 23.7830089,44.0401524 23.3378865,43.4579775 C22.9332298,42.8758025 22.0834506,42.7510508 21.2741372,43.16689 C20.424358,43.6243132 20.060167,43.8322328 19.6959759,44.0401524 C18.8461968,44.4975756 16.5801191,44.4559917 17.2680355,45.4540058 C17.9964176,46.45202 18.5629371,47.3668663 18.6438684,47.8658734 Z M18.077349,48.7391358 C17.6726923,47.8242895 17.1466385,46.7431075 16.8229131,46.3272682 C16.4991877,45.911429 15.9326683,45.7035094 15.4875459,45.8282611 C15.0424235,45.9530129 14.5163698,45.9530129 13.9498503,46.3272682 C13.1000712,46.8678593 11.764704,47.6995377 11.5623756,49.0302233 C11.4005129,50.3609089 11.6837727,50.6519963 12.3716891,51.1510034 C13.0596055,51.6500105 13.1405369,52.481689 14.3949727,51.8579301 C15.6494086,51.2341713 16.0135997,50.3193249 17.0252415,50.0282375 C18.0368833,49.73715 18.4820057,49.6123982 18.077349,48.7391358 Z M20.5862207,50.6519963 C20.181564,50.277741 18.8057311,50.5688285 17.7536236,50.9846677 C16.8633788,51.358923 15.8112713,51.6915944 16.6610504,52.1906015 C17.5108296,52.7311925 16.9038445,52.9806961 18.6438684,52.9806961 C20.3838924,52.9391122 22.2453133,53.2301996 21.9215879,52.4401051 C21.5573969,51.6500105 20.9908775,51.0678356 20.5862207,50.6519963 Z M26.2514149,47.8658734 C26.0086209,47.2421146 25.9681552,47.0341949 24.6732537,47.4500342 C23.3783522,47.8658734 22.7309014,48.3232966 22.164382,48.7391358 C21.3146028,49.3628947 21.3955342,49.6539822 22.164382,50.859916 C22.9332298,52.0242658 22.6095044,52.8975282 23.9853373,52.481689 C25.3611701,52.0658498 25.3611701,52.0242658 26.372812,51.5668427 C27.3844538,51.1094195 27.8700419,51.1925873 27.1416598,49.9866536 C26.4132776,48.7391358 26.494209,48.4896323 26.2514149,47.8658734 Z M27.8700419,47.4916181 C26.9393314,48.0322091 28.1128359,49.4876465 28.2746986,49.9034857 C28.4365613,50.3193249 29.3672718,50.5688285 30.0956539,49.9034857 C30.824036,49.2381429 31.5928838,49.196559 31.6333495,48.5728001 C31.6738151,47.9906252 31.6738151,47.9074574 31.2286927,47.3252824 C30.702639,46.7431075 29.7314628,46.45202 27.8700419,47.4916181 Z M36.0845735,42.9589704 C35.27526,42.8758025 34.3040839,43.5827293 33.2519764,43.7906489 C32.1998689,43.9985685 32.1189375,44.8718309 31.8761435,45.3292541 C31.5928838,45.9530129 31.5524181,46.45202 31.8761435,47.1173628 C32.1998689,47.7827056 32.0380062,48.2817127 32.8877853,47.4084503 C33.7375645,46.5351879 34.2636182,45.911429 34.7087406,45.3292541 C35.153863,44.7470791 36.893887,43.0837222 36.0845735,42.9589704 Z"
           id="path277"
           fill-rule="nonzero"
           style="fill:#143f60;fill-opacity:1" />
      </g>
    </g>
  </g>
</svg>
