<?xml version="1.0" encoding="utf-8"?>
<!-- Generator: Adobe Illustrator 22.1.0, SVG Export Plug-In . SVG Version: 6.00 Build 0)  -->
<svg version="1.1"
	 id="Layer_1" xmlns:cc="http://creativecommons.org/ns#" xmlns:dc="http://purl.org/dc/elements/1.1/" xmlns:rdf="http://www.w3.org/1999/02/22-rdf-syntax-ns#"
	 xmlns="http://www.w3.org/2000/svg" xmlns:xlink="http://www.w3.org/1999/xlink" x="0px" y="0px" viewBox="0 0 613.7 458.5"
	 style="enable-background:new 0 0 613.7 458.5;" xml:space="preserve">
<style type="text/css">
	.st0{fill:#FFFFFF;}
</style>
<g id="Wikimedia">
	<g id="g42">
		<path id="path4" d="M55.8,338l11.9-38.6h15.6L95.1,338l13.3-38.6h16.2l-23.4,67.1H90.1l-14.7-46.7l-14.6,46.7H49.7l-23.4-67.1
			h16.2L55.8,338L55.8,338z"/>
		<path id="path6" d="M132.7,299.4h15v67.1h-15V299.4z"/>
		<path id="path8" d="M164.2,299.4h15V327l25.3-27.6H223l-26.7,29.7c2.3,3.2,6.6,9.2,12.8,17.9s10.8,15.2,13.9,19.5h-17.5L185.9,340
			l-6.7,7.5v19h-15V299.4z"/>
		<path id="path10" d="M232.3,299.4h15v67.1h-15V299.4z"/>
		<path id="path12" d="M323.9,324.3L305.8,361h-9l-18-36.7v42.2h-15v-67.1h20.3l17.3,36.9l17.4-36.9H339v67.1h-15L323.9,324.3
			L323.9,324.3z"/>
		<path id="path14" d="M403.8,299.4v13.3h-33.4v13.8h30v12.8h-30v13.9h34.4v13.2h-49.4v-67.1h48.4V299.4z"/>
		<path id="path16" d="M469.4,308.2c6.4,5.9,9.6,14,9.6,24.4s-3.1,18.7-9.4,24.8c-6.2,6.1-15.8,9.1-28.6,9.1h-22.9v-67.1h23.7
			C453.9,299.4,463,302.4,469.4,308.2L469.4,308.2z M458.4,348.1c3.7-3.5,5.5-8.5,5.5-15.1s-1.8-11.7-5.5-15.2
			c-3.7-3.6-9.3-5.3-16.9-5.3h-8.4v40.8h9.5C449.5,353.3,454.8,351.6,458.4,348.1L458.4,348.1z"/>
		<path id="path18" d="M492,299.4h15v67.1h-15V299.4z"/>
		<path id="path20" d="M571.3,366.5l-6.2-14.5H537l-6.2,14.5h-15.9l29-67.1h14.5l29,67.1H571.3z M551,319.4l-8.4,19.5h16.8
			L551,319.4L551,319.4z"/>
	</g>
</g>
<g id="g53">
	<path id="path46" class="st0" d="M317.3,216c35.9-5.1,63.5-35.9,63.5-73.3c0-22.7-10.2-43-26.3-56.5l-37.3,37.3L317.3,216
		L317.3,216z"/>
	<path id="path48" class="st0" d="M296.4,216v-92.5l-37.3-37.3c-16.1,13.6-26.3,33.9-26.3,56.5C233,180,260.5,210.9,296.4,216z"/>
	<path id="path50" class="st0" d="M371.3,78.4c17.2,17.2,26.6,40,26.6,64.3s-9.5,47.1-26.6,64.3c-17.2,17.2-40,26.6-64.3,26.6
		s-47.1-9.5-64.3-26.6c-17.2-17.1-26.6-40-26.6-64.3s9.5-47.1,26.6-64.3c1.5-1.5,3-2.9,4.5-4.2l-20.8-20.8c-1.5,1.4-3,2.8-4.5,4.3
		c-11,11-19.7,23.9-25.8,38.2c-6.3,14.8-9.5,30.6-9.5,46.8s3.2,32,9.5,46.8c6.1,14.3,14.7,27.2,25.8,38.2c11,11,23.9,19.7,38.2,25.8
		c14.8,6.3,30.6,9.5,46.8,9.5s32-3.2,46.8-9.5c14.3-6.1,27.2-14.7,38.2-25.8c11-11,19.7-23.9,25.8-38.2c6.3-14.8,9.5-30.6,9.5-46.8
		s-3.2-32-9.5-46.8c-6.1-14.3-14.7-27.2-25.8-38.2c-1.5-1.5-3-2.9-4.5-4.3l-20.8,20.8C368.3,75.5,369.8,76.9,371.3,78.4L371.3,78.4z
		"/>
	<circle id="red_circle_52_" class="st0" cx="306.9" cy="59.3" r="37.5"/>
</g>
<g id="g62">
	<path id="path55" d="M317.3,216c35.9-5.1,63.5-35.9,63.5-73.3c0-22.7-10.2-43-26.3-56.5l-37.3,37.3L317.3,216L317.3,216z"/>
	<path id="path57" d="M296.4,216v-92.5l-37.3-37.3c-16.1,13.6-26.3,33.9-26.3,56.5C233,180,260.5,210.9,296.4,216z"/>
	<path id="path59" d="M371.3,78.4c17.2,17.2,26.6,40,26.6,64.3s-9.5,47.1-26.6,64.3c-17.2,17.2-40,26.6-64.3,26.6
		s-47.1-9.5-64.3-26.6c-17.2-17.1-26.6-40-26.6-64.3s9.5-47.1,26.6-64.3c1.5-1.5,3-2.9,4.5-4.2l-20.8-20.8c-1.5,1.4-3,2.8-4.5,4.3
		c-11,11-19.7,23.9-25.8,38.2c-6.3,14.8-9.5,30.6-9.5,46.8s3.2,32,9.5,46.8c6.1,14.3,14.7,27.2,25.8,38.2c11,11,23.9,19.7,38.2,25.8
		c14.8,6.3,30.6,9.5,46.8,9.5s32-3.2,46.8-9.5c14.3-6.1,27.2-14.7,38.2-25.8c11-11,19.7-23.9,25.8-38.2c6.3-14.8,9.5-30.6,9.5-46.8
		s-3.2-32-9.5-46.8c-6.1-14.3-14.7-27.2-25.8-38.2c-1.5-1.5-3-2.9-4.5-4.3l-20.8,20.8C368.3,75.5,369.8,76.9,371.3,78.4L371.3,78.4z
		"/>
	<path id="red_circle_46_" d="M344.4,59.3c0,20.7-16.8,37.5-37.5,37.5l0,0c-20.7,0-37.5-16.8-37.5-37.5s16.8-37.5,37.5-37.5
		S344.4,38.6,344.4,59.3z"/>
</g>
<g id="Portugal">
	<path d="M172,403.3c1.8,0.8,3.2,2,4.2,3.5c1,1.5,1.5,3.3,1.5,5.4c0,2.1-0.5,3.8-1.5,5.4c-1,1.5-2.4,2.7-4.2,3.5
		c-1.8,0.8-4,1.2-6.5,1.2h-5.6v7.7h-6.5v-28h12.1C168,402,170.1,402.4,172,403.3z M169.6,415.8c1-0.8,1.5-2,1.5-3.6
		c0-1.6-0.5-2.8-1.5-3.6c-1-0.8-2.5-1.3-4.4-1.3h-5.3v9.7h5.3C167.1,417,168.6,416.6,169.6,415.8z"/>
	<path d="M199.7,428.6c-2.3-1.3-4.2-3-5.5-5.2s-2-4.7-2-7.4c0-2.7,0.7-5.2,2-7.4s3.1-3.9,5.5-5.2c2.3-1.3,5-1.9,7.9-1.9
		c2.9,0,5.5,0.6,7.8,1.9c2.3,1.3,4.1,3,5.5,5.2c1.3,2.2,2,4.7,2,7.4c0,2.7-0.7,5.2-2,7.4c-1.3,2.2-3.2,3.9-5.5,5.2
		c-2.3,1.3-4.9,1.9-7.8,1.9C204.6,430.5,202,429.9,199.7,428.6z M212,423.8c1.3-0.8,2.4-1.8,3.1-3.2c0.8-1.4,1.1-2.9,1.1-4.6
		s-0.4-3.3-1.1-4.6c-0.8-1.4-1.8-2.4-3.1-3.2c-1.3-0.8-2.8-1.1-4.5-1.1c-1.7,0-3.1,0.4-4.5,1.1c-1.3,0.8-2.4,1.8-3.1,3.2
		c-0.8,1.4-1.1,2.9-1.1,4.6s0.4,3.3,1.1,4.6c0.8,1.4,1.8,2.4,3.1,3.2c1.3,0.8,2.8,1.1,4.5,1.1C209.2,425,210.7,424.6,212,423.8z"/>
	<path d="M256.9,430l-5.4-7.8h-0.3h-5.6v7.8h-6.5v-28h12.1c2.5,0,4.6,0.4,6.5,1.2c1.8,0.8,3.2,2,4.2,3.5c1,1.5,1.5,3.3,1.5,5.4
		s-0.5,3.9-1.5,5.4c-1,1.5-2.4,2.7-4.3,3.5l6.3,9H256.9z M255.3,408.6c-1-0.8-2.5-1.3-4.4-1.3h-5.3v9.8h5.3c1.9,0,3.4-0.4,4.4-1.3
		c1-0.9,1.5-2.1,1.5-3.6C256.8,410.6,256.3,409.4,255.3,408.6z"/>
	<path d="M285.6,407.3h-9V402H301v5.3h-9V430h-6.5V407.3z"/>
	<path d="M318.9,427.2c-2.2-2.2-3.3-5.4-3.3-9.5V402h6.5v15.4c0,5,2.1,7.5,6.2,7.5c2,0,3.6-0.6,4.6-1.8c1.1-1.2,1.6-3.1,1.6-5.7V402
		h6.4v15.7c0,4.1-1.1,7.3-3.3,9.5c-2.2,2.2-5.3,3.3-9.3,3.3S321.2,429.4,318.9,427.2z"/>
	<path d="M377.6,415.6h5.9v11.4c-1.5,1.1-3.3,2-5.3,2.6c-2,0.6-4,0.9-6,0.9c-2.9,0-5.5-0.6-7.8-1.9s-4.1-3-5.5-5.2s-2-4.7-2-7.5
		s0.7-5.3,2-7.5s3.2-3.9,5.5-5.2s5-1.9,7.9-1.9c2.5,0,4.7,0.4,6.7,1.2c2,0.8,3.7,2,5,3.6l-4.2,3.8c-2-2.1-4.4-3.2-7.2-3.2
		c-1.8,0-3.4,0.4-4.8,1.1c-1.4,0.7-2.5,1.8-3.2,3.2c-0.8,1.4-1.2,2.9-1.2,4.7c0,1.7,0.4,3.3,1.2,4.6c0.8,1.4,1.8,2.4,3.2,3.2
		c1.4,0.8,2.9,1.1,4.7,1.1c1.9,0,3.5-0.4,5-1.2V415.6z"/>
	<path d="M419.3,424h-13l-2.5,6h-6.6l12.5-28h6.4l12.5,28h-6.8L419.3,424z M417.2,419.1l-4.4-10.7l-4.4,10.7H417.2z"/>
	<path d="M442.8,402h6.5v22.7h14v5.3h-20.5V402z"/>
</g>
</svg>
