<?xml version="1.0" encoding="UTF-8" standalone="no"?>
<svg
   viewBox="0 0 109 33"
   fill="#fff"
   fill-rule="evenodd"
   stroke="#000"
   stroke-linecap="round"
   stroke-linejoin="round"
   version="1.1"
   id="svg4315"
   sodipodi:docname="internet-archive.svg"
   inkscape:version="1.1 (c4e8f9e, 2021-05-24)"
   xmlns:inkscape="http://www.inkscape.org/namespaces/inkscape"
   xmlns:sodipodi="http://sodipodi.sourceforge.net/DTD/sodipodi-0.dtd"
   xmlns:xlink="http://www.w3.org/1999/xlink"
   xmlns="http://www.w3.org/2000/svg"
   xmlns:svg="http://www.w3.org/2000/svg">
  <sodipodi:namedview
     id="namedview4317"
     pagecolor="#ffffff"
     bordercolor="#666666"
     borderopacity="1.0"
     inkscape:pageshadow="2"
     inkscape:pageopacity="0.0"
     inkscape:pagecheckerboard="0"
     showgrid="false"
     inkscape:zoom="8.8493271"
     inkscape:cx="48.930274"
     inkscape:cy="2.4295633"
     inkscape:window-width="1678"
     inkscape:window-height="995"
     inkscape:window-x="1"
     inkscape:window-y="26"
     inkscape:window-maximized="0"
     inkscape:current-layer="g4729" />
  <g
     id="use4285"
     transform="translate(0.5,0.5)">
    <g
       stroke="none"
       fill="#000000"
       fill-rule="nonzero"
       id="g4729">
      <path
         d="m 37.86,26.237 -0.855,-2.37 H 34.1 l -0.855,2.37 h -0.706 l 2.267,-6.2 C 34.852,19.923 35,19.467 35,19.365 c 0,-0.48 -0.524,-0.48 -0.877,-0.535 v -0.25 h 2.142 l 2.78,7.668 H 37.86 Z m -2.347,-6.232 -1.22,3.327 h 2.518 z m 12.107,6.232 -2.017,-3.543 h -0.706 v 3.543 h -1.253 v -6.12 c 0,-1.094 0,-1.14 -1.082,-1.3 v -0.25 h 2.928 c 1.38,0 3.088,0.296 3.088,2.04 0,1.15 -0.66,1.7 -1.743,1.88 l 2.097,3.75 h -1.3 z m -1.96,-7.133 c -0.82,0 -0.763,0.308 -0.763,1.025 v 2.028 h 0.65 c 1,0 1.777,-0.365 1.777,-1.48 0,-1.128 -0.58,-1.572 -1.663,-1.572 z m 10.525,7.246 c -2.62,0 -3.36,-1.698 -3.36,-4.056 0,-2.2 0.73,-3.76 3.18,-3.76 0.775,0 1.55,0.103 2.28,0.342 l 0.068,1.903 h -0.33 a 1.69,1.69 0 0 0 -0.239,-0.695 c -0.353,-0.615 -0.946,-1.003 -1.664,-1.003 -1.72,0 -1.948,1.9 -1.948,3.213 0,1.413 0.433,3.418 2.2,3.418 0.752,0 1.38,-0.148 1.994,-0.58 v 0.786 c -0.718,0.32 -1.402,0.433 -2.188,0.433 z m 11.56,-0.113 V 22.51 h -3.1 v 3.726 h -1.253 v -6.164 c 0,-1 -0.182,-1.014 -1.14,-1.117 v -0.25 l 2.393,-0.262 v 3.532 h 3.1 V 18.57 h 1.253 v 7.668 h -1.253 z m 5.657,0 v -0.285 c 0.855,0 0.97,-0.228 0.97,-1.06 v -4.9 c 0,-0.832 -0.114,-1.06 -0.97,-1.06 V 18.65 h 3.2 v 0.285 c -0.854,0 -0.968,0.24 -0.968,1.06 v 4.9 c 0,0.82 0.114,1.06 0.968,1.06 v 0.285 z m 11.513,0 h -1 l -2.233,-6.2 c -0.342,-0.957 -0.4,-1.025 -1.38,-1.208 v -0.25 h 2.2 l 2.233,6.244 h 0.023 l 2.176,-6.244 h 0.74 z m 11.775,0 h -4.546 v -6.12 c 0,-1.094 -0.01,-1.128 -1.083,-1.3 v -0.25 h 5.459 l 0.034,1.686 h -0.32 c 0,-0.855 -0.422,-1.15 -1.23,-1.15 h -0.9 c -0.524,0 -0.718,0.01 -0.718,0.592 v 2.267 h 1.38 c 0.65,0 0.832,-0.296 0.934,-0.877 h 0.32 v 2.393 H 95.7 c 0,-0.638 -0.273,-0.98 -0.934,-0.98 h -1.38 v 2.54 c 0,0.627 0.137,0.66 0.718,0.66 h 1.265 c 0.775,0 0.968,-0.387 1.025,-1.117 h 0.32 z m -64.083,-10.4 v -0.285 c 0.854,0 0.968,-0.228 0.968,-1.06 v -4.9 c 0,-0.832 -0.114,-1.06 -0.968,-1.06 V 8.25 h 3.2 v 0.285 c -0.855,0 -0.97,0.24 -0.97,1.06 v 4.9 c 0,0.82 0.114,1.06 0.97,1.06 v 0.285 z"
         id="path4709"
         style="fill:#5cc6ff;fill-opacity:1" />
      <path
         id="use4711"
         d="m 45.128,15.838 -3.76,-6.483 h -0.023 v 6.483 h -0.718 v -6.2 c 0,-1.07 -0.17,-1.025 -1.14,-1.208 V 8.18 h 2.404 l 3.6,6.198 h 0.023 V 8.17 h 0.718 v 7.668 z"
         style="fill:#5cc6ff;fill-opacity:1" />
      <path
         id="use4713"
         d="m 56.396,9.856 c 0,-0.9 -0.387,-1.15 -1.242,-1.15 h -0.775 v 7.132 H 53.126 V 8.706 H 52.34 c -0.866,0 -1.162,0.25 -1.23,1.117 h -0.32 l 0.046,-1.652 h 5.834 l 0.046,1.686 z"
         style="fill:#5cc6ff;fill-opacity:1" />
      <path
         d="M 65.842,15.838 H 61.296 V 9.72 c 0,-1.094 -0.01,-1.128 -1.082,-1.3 V 8.17 h 5.458 l 0.034,1.686 h -0.32 c 0,-0.855 -0.422,-1.15 -1.23,-1.15 h -0.9 c -0.524,0 -0.718,0.01 -0.718,0.592 v 2.267 h 1.38 c 0.65,0 0.832,-0.296 0.934,-0.877 h 0.32 v 2.393 h -0.32 c 0,-0.638 -0.273,-0.98 -0.934,-0.98 h -1.38 v 2.54 c 0,0.627 0.137,0.66 0.718,0.66 h 1.264 c 0.775,0 0.968,-0.387 1.025,-1.117 h 0.32 z m 9.172,0 -2.017,-3.543 h -0.706 v 3.543 H 71.038 V 9.72 c 0,-1.094 0,-1.14 -1.082,-1.3 V 8.17 h 2.928 c 1.38,0 3.088,0.296 3.088,2.04 0,1.15 -0.66,1.7 -1.743,1.88 l 2.096,3.75 h -1.3 z m -1.96,-7.132 c -0.82,0 -0.763,0.308 -0.763,1.025 v 2.028 h 0.65 c 1,0 1.777,-0.365 1.777,-1.48 0,-1.128 -0.58,-1.572 -1.663,-1.572 z"
         id="path4715"
         style="fill:#5cc6ff;fill-opacity:1" />
      <path
         id="use4717"
         d="m 85.724001,15.838 -3.76,-6.483 h -0.023 v 6.483 h -0.718 v -6.2 c 0,-1.07 -0.17,-1.025 -1.14,-1.208 V 8.18 h 2.404 l 3.6,6.198 h 0.023 V 8.17 h 0.718 v 7.668 z"
         style="fill:#5cc6ff;fill-opacity:1" />
      <path
         d="M 96.924,15.838 H 92.378 V 9.72 c 0,-1.094 -0.01,-1.128 -1.082,-1.3 V 8.17 h 5.458 l 0.034,1.686 h -0.32 c 0,-0.855 -0.422,-1.15 -1.23,-1.15 h -0.9 c -0.524,0 -0.718,0.01 -0.718,0.592 v 2.267 H 95 c 0.65,0 0.832,-0.296 0.934,-0.877 h 0.32 v 2.393 h -0.32 c 0,-0.638 -0.273,-0.98 -0.934,-0.98 h -1.38 v 2.54 c 0,0.627 0.137,0.66 0.718,0.66 h 1.264 c 0.775,0 0.968,-0.387 1.025,-1.117 h 0.32 z"
         id="path4719"
         style="fill:#5cc6ff;fill-opacity:1" />
      <path
         id="use4721"
         d="m 106.722,9.856 c 0,-0.9 -0.387,-1.15 -1.242,-1.15 h -0.775 v 7.132 h -1.253 V 8.706 h -0.786 c -0.866,0 -1.162,0.25 -1.23,1.117 h -0.32 l 0.046,-1.652 h 5.834 l 0.046,1.686 z"
         style="fill:#5cc6ff;fill-opacity:1" />
      <path
         d="m 0,29.68 h 27.477 v 1.4 H 0 Z m 1.082,-2.708 h 25.363 v 1.95 H 1.082 Z M 0.92,4.752 h 25.228 v 2.7 H 0.92 Z M 13.534,3.94 h 12.45 L 26.744,3.1 13.544,0 0.344,3.1 1.104,3.94 Z M 4.56,16.05 4.452,12.058 4.252,8.301 C 4.247,8.193 4.202,8.169 4.112,8.151 3.746,8.072 3.373,8.032 2.998,8.031 2.623,8.03 2.253,8.069 1.884,8.151 c -0.1,0.02 -0.136,0.043 -0.14,0.15 l -0.2,3.757 -0.094,3.992 0.01,2.83 0.082,3.14 0.177,3.365 0.05,0.638 c 0.403,0.108 0.818,0.167 1.235,0.175 0.417,-0.008 0.832,-0.067 1.235,-0.175 l 0.05,-0.638 0.177,-3.365 0.082,-3.14 0.01,-2.83 z m 6.868,0 -0.108,-3.992 -0.2,-3.757 C 11.115,8.193 11.07,8.169 10.98,8.151 10.614,8.072 10.241,8.032 9.866,8.031 9.491,8.03 9.121,8.069 8.752,8.151 c -0.1,0.02 -0.136,0.043 -0.14,0.15 l -0.2,3.757 -0.092,3.992 v 2.83 l 0.082,3.14 0.177,3.365 0.05,0.638 c 0.403,0.108 0.818,0.167 1.235,0.175 0.417,-0.008 0.832,-0.067 1.235,-0.175 l 0.05,-0.638 0.177,-3.365 0.082,-3.14 0.01,-2.83 z"
         id="path4723"
         style="fill:#5cc6ff;fill-opacity:1" />
      <path
         id="use4725"
         d="m 19.394,16.05 -0.108,-3.992 -0.2,-3.757 C 19.081,8.193 19.036,8.169 18.946,8.151 A 5.25,5.25 0 0 0 17.832,8.032 c -0.373,10e-4 -0.745,0.038 -1.114,0.12 -0.1,0.02 -0.136,0.043 -0.14,0.15 l -0.2,3.757 -0.108,3.992 0.01,2.83 0.082,3.14 0.177,3.365 0.05,0.638 c 0.403,0.108 0.818,0.167 1.235,0.175 0.417,-0.008 0.832,-0.067 1.235,-0.175 l 0.05,-0.638 0.177,-3.365 0.082,-3.14 0.01,-2.83 z"
         style="fill:#5cc6ff;fill-opacity:1" />
      <path
         id="use4727"
         d="m 26.1,16.05 -0.108,-3.992 -0.2,-3.757 C 25.787,8.193 25.742,8.169 25.652,8.151 A 5.25,5.25 0 0 0 24.538,8.032 c -0.373,10e-4 -0.745,0.038 -1.114,0.12 -0.1,0.02 -0.136,0.043 -0.14,0.15 l -0.2,3.757 -0.108,3.992 0.01,2.83 0.082,3.14 0.177,3.365 0.05,0.638 c 0.403,0.108 0.818,0.167 1.235,0.175 0.417,-0.008 0.832,-0.067 1.235,-0.175 l 0.05,-0.638 0.177,-3.365 0.082,-3.14 0.01,-2.83 z"
         style="fill:#5cc6ff;fill-opacity:1" />
    </g>
  </g>
  <symbol
     id="A"
     overflow="visible">
    <g
       stroke="none"
       fill="#000"
       fill-rule="nonzero"
       id="g4307">
      <path
         d="M37.86 26.237l-.855-2.37H34.1l-.855 2.37h-.706l2.267-6.2c.046-.114.194-.57.194-.672 0-.48-.524-.48-.877-.535v-.25h2.142l2.78 7.668H37.86zm-2.347-6.232l-1.22 3.327h2.518zm12.107 6.232l-2.017-3.543h-.706v3.543h-1.253v-6.12c0-1.094 0-1.14-1.082-1.3v-.25h2.928c1.38 0 3.088.296 3.088 2.04 0 1.15-.66 1.7-1.743 1.88l2.097 3.75h-1.3zm-1.96-7.133c-.82 0-.763.308-.763 1.025v2.028h.65c1 0 1.777-.365 1.777-1.48 0-1.128-.58-1.572-1.663-1.572zm10.525 7.246c-2.62 0-3.36-1.698-3.36-4.056 0-2.2.73-3.76 3.18-3.76.775 0 1.55.103 2.28.342l.068 1.903h-.33a1.69 1.69 0 0 0-.239-.695c-.353-.615-.946-1.003-1.664-1.003-1.72 0-1.948 1.9-1.948 3.213 0 1.413.433 3.418 2.2 3.418.752 0 1.38-.148 1.994-.58v.786c-.718.32-1.402.433-2.188.433zm11.56-.113V22.51h-3.1v3.726h-1.253v-6.164c0-1-.182-1.014-1.14-1.117v-.25l2.393-.262v3.532h3.1V18.57h1.253v7.668h-1.253zm5.657 0v-.285c.855 0 .97-.228.97-1.06v-4.9c0-.832-.114-1.06-.97-1.06v-.282h3.2v.285c-.854 0-.968.24-.968 1.06v4.9c0 .82.114 1.06.968 1.06v.285zm11.513 0h-1l-2.233-6.2c-.342-.957-.4-1.025-1.38-1.208v-.25h2.2l2.233 6.244h.023l2.176-6.244h.74zm11.775 0h-4.546v-6.12c0-1.094-.01-1.128-1.083-1.3v-.25h5.459l.034 1.686h-.32c0-.855-.422-1.15-1.23-1.15h-.9c-.524 0-.718.01-.718.592v2.267h1.38c.65 0 .832-.296.934-.877h.32v2.393h-.32c0-.638-.273-.98-.934-.98h-1.38v2.54c0 .627.137.66.718.66h1.265c.775 0 .968-.387 1.025-1.117h.32zm-64.083-10.4v-.285c.854 0 .968-.228.968-1.06v-4.9c0-.832-.114-1.06-.968-1.06V8.25h3.2v.285c-.855 0-.97.24-.97 1.06v4.9c0 .82.114 1.06.97 1.06v.285z"
         id="path4287" />
      <use
         xlink:href="#C"
         id="use4289" />
      <use
         xlink:href="#D"
         id="use4291" />
      <path
         d="M65.842 15.838h-4.546V9.72c0-1.094-.01-1.128-1.082-1.3v-.25h5.458l.034 1.686h-.32c0-.855-.422-1.15-1.23-1.15h-.9c-.524 0-.718.01-.718.592v2.267h1.38c.65 0 .832-.296.934-.877h.32v2.393h-.32c0-.638-.273-.98-.934-.98h-1.38v2.54c0 .627.137.66.718.66h1.264c.775 0 .968-.387 1.025-1.117h.32zm9.172 0l-2.017-3.543h-.706v3.543h-1.253V9.72c0-1.094 0-1.14-1.082-1.3v-.25h2.928c1.38 0 3.088.296 3.088 2.04 0 1.15-.66 1.7-1.743 1.88l2.096 3.75h-1.3zm-1.96-7.132c-.82 0-.763.308-.763 1.025v2.028h.65c1 0 1.777-.365 1.777-1.48 0-1.128-.58-1.572-1.663-1.572z"
         id="path4293" />
      <use
         xlink:href="#C"
         x="40.596"
         id="use4295" />
      <path
         d="M96.924 15.838h-4.546V9.72c0-1.094-.01-1.128-1.082-1.3v-.25h5.458l.034 1.686h-.32c0-.855-.422-1.15-1.23-1.15h-.9c-.524 0-.718.01-.718.592v2.267H95c.65 0 .832-.296.934-.877h.32v2.393h-.32c0-.638-.273-.98-.934-.98h-1.38v2.54c0 .627.137.66.718.66h1.264c.775 0 .968-.387 1.025-1.117h.32z"
         id="path4297" />
      <use
         xlink:href="#D"
         x="50.326"
         id="use4299" />
      <path
         d="M0 29.68h27.477v1.4H0zm1.082-2.708h25.363v1.95H1.082zM.92 4.752h25.228v2.7H.92zm12.614-.812h12.45l.76-.84-13.2-3.1-13.2 3.1.76.84zM4.56 16.05l-.108-3.992-.2-3.757c-.005-.108-.05-.132-.14-.15-.366-.079-.739-.119-1.114-.12s-.745.038-1.114.12c-.1.02-.136.043-.14.15l-.2 3.757-.094 3.992.01 2.83.082 3.14.177 3.365.05.638c.403.108.818.167 1.235.175.417-.008.832-.067 1.235-.175l.05-.638.177-3.365.082-3.14.01-2.83zm6.868 0l-.108-3.992-.2-3.757c-.005-.108-.05-.132-.14-.15-.366-.079-.739-.119-1.114-.12s-.745.038-1.114.12c-.1.02-.136.043-.14.15l-.2 3.757-.092 3.992v2.83l.082 3.14.177 3.365.05.638c.403.108.818.167 1.235.175.417-.008.832-.067 1.235-.175l.05-.638.177-3.365.082-3.14.01-2.83z"
         id="path4301" />
      <use
         xlink:href="#E"
         id="use4303" />
      <use
         xlink:href="#E"
         x="6.706"
         id="use4305" />
    </g>
  </symbol>
  <defs
     id="defs4313">
    <path
       id="C"
       d="M45.128 15.838l-3.76-6.483h-.023v6.483h-.718v-6.2c0-1.07-.17-1.025-1.14-1.208v-.25h2.404l3.6 6.198h.023V8.17h.718v7.668z" />
    <path
       id="D"
       d="M56.396 9.856c0-.9-.387-1.15-1.242-1.15h-.775v7.132h-1.253V8.706h-.786c-.866 0-1.162.25-1.23 1.117h-.32l.046-1.652h5.834l.046 1.686z" />
    <path
       id="E"
       d="M19.394 16.05l-.108-3.992-.2-3.757c-.005-.108-.05-.132-.14-.15a5.25 5.25 0 0 0-1.114-.119c-.373.001-.745.038-1.114.12-.1.02-.136.043-.14.15l-.2 3.757-.108 3.992.01 2.83.082 3.14.177 3.365.05.638c.403.108.818.167 1.235.175.417-.008.832-.067 1.235-.175l.05-.638.177-3.365.082-3.14.01-2.83z" />
  </defs>
</svg>
